<svg xmlns="http://www.w3.org/2000/svg" viewBox="0 0 210 297" width="210mm" height="297mm"><g transform="translate(10.0 20.0)"><g clip-path="url(#id1)"><defs><clipPath id="id1"><rect x="0" y="0" width="190" height="267"/></clipPath></defs><g transform="translate(0.0 0)"><g><line stroke="blue" stroke-width="0.1" x1="0.05" y1="0.0" x2="0.05" y2="7.0"/><line stroke="blue" stroke-width="0.1" x1="0" y1="3.5" x2="30" y2="3.5"/><line stroke="blue" stroke-width="0.1" x1="30.05" y1="0.0" x2="30.05" y2="7.0"/><line stroke="blue" stroke-width="0.1" x1="30.0" y1="3.5" x2="40.0" y2="3.5"/><line stroke="blue" stroke-width="0.1" x1="40.05" y1="0.0" x2="40.05" y2="7.0"/><line stroke="blue" stroke-width="0.1" x1="40.0" y1="3.5" x2="80.0" y2="3.5"/><line stroke="blue" stroke-width="0.1" x1="80.05" y1="0.0" x2="80.05" y2="7.0"/><line stroke="blue" stroke-width="0.1" x1="99.95" y1="0.0" x2="99.95" y2="7.0"/><line stroke="blue" stroke-width="0.1" x1="80.0" y1="3.5" x2="100.0" y2="3.5"/><line stroke="blue" stroke-width="0.1" x1="0.05" y1="12.00" x2="0.05" y2="15.50"/><line stroke="blue" stroke-width="0.1" x1="0" y1="13.75" x2="6" y2="13.75"/><line stroke="blue" stroke-width="0.1" x1="6.05" y1="12.00" x2="6.05" y2="15.50"/><line stroke="blue" stroke-width="0.1" x1="6.0" y1="13.75" x2="18.0" y2="13.75"/><line stroke="blue" stroke-width="0.1" x1="18.05" y1="12.00" x2="18.05" y2="15.50"/><line stroke="blue" stroke-width="0.1" x1="18.0" y1="13.75" x2="21.0" y2="13.75"/><line stroke="blue" stroke-width="0.1" x1="21.05" y1="12.00" x2="21.05" y2="15.50"/><line stroke="blue" stroke-width="0.1" x1="21.0" y1="13.75" x2="30.0" y2="13.75"/><line stroke="blue" stroke-width="0.1" x1="30.05" y1="12.00" x2="30.05" y2="15.50"/><line stroke="blue" stroke-width="0.1" x1="30.0" y1="13.75" x2="40.0" y2="13.75"/><line stroke="blue" stroke-width="0.1" x1="40.05" y1="12.00" x2="40.05" y2="15.50"/><line stroke="blue" stroke-width="0.1" x1="40.0" y1="13.75" x2="44.0" y2="13.75"/><line stroke="blue" stroke-width="0.1" x1="44.05" y1="12.00" x2="44.05" y2="15.50"/><line stroke="blue" stroke-width="0.1" x1="44.0" y1="13.75" x2="52.0" y2="13.75"/><line stroke="blue" stroke-width="0.1" x1="52.05" y1="12.00" x2="52.05" y2="15.50"/><line stroke="blue" stroke-width="0.1" x1="52.0" y1="13.75" x2="64.0" y2="13.75"/><line stroke="blue" stroke-width="0.1" x1="64.05" y1="12.00" x2="64.05" y2="15.50"/><line stroke="blue" stroke-width="0.1" x1="64.0" y1="13.75" x2="80.0" y2="13.75"/><line stroke="blue" stroke-width="0.1" x1="80.05" y1="12.00" x2="80.05" y2="15.50"/><line stroke="blue" stroke-width="0.1" x1="80.0" y1="13.75" x2="88.0" y2="13.75"/><line stroke="blue" stroke-width="0.1" x1="88.05" y1="12.00" x2="88.05" y2="15.50"/><line stroke="blue" stroke-width="0.1" x1="88.0" y1="13.75" x2="94.0" y2="13.75"/><line stroke="blue" stroke-width="0.1" x1="94.05" y1="12.00" x2="94.05" y2="15.50"/><line stroke="blue" stroke-width="0.1" x1="94.0" y1="13.75" x2="98.0" y2="13.75"/><line stroke="blue" stroke-width="0.1" x1="98.05" y1="12.00" x2="98.05" y2="15.50"/><line stroke="blue" stroke-width="0.1" x1="99.95" y1="12.00" x2="99.95" y2="15.50"/><line stroke="blue" stroke-width="0.1" x1="98.0" y1="13.75" x2="100.0" y2="13.75"/><line stroke="blue" stroke-width="0.1" x1="0.05" y1="20.50000000000000000" x2="0.05" y2="22.83333333333333333333333333"/><line stroke="blue" stroke-width="0.1" x1="0" y1="21.66666666666666675" x2="6" y2="21.66666666666666675"/><line stroke="blue" stroke-width="0.1" x1="6.05" y1="20.50000000000000000" x2="6.05" y2="22.83333333333333333333333333"/><line stroke="blue" stroke-width="0.1" x1="6.0" y1="21.66666666666666675" x2="8.4" y2="21.66666666666666675"/><line stroke="blue" stroke-width="0.1" x1="8.45" y1="20.50000000000000000" x2="8.45" y2="22.83333333333333333333333333"/><line stroke="blue" stroke-width="0.1" x1="8.4" y1="21.66666666666666675" x2="13.2" y2="21.66666666666666675"/><line stroke="blue" stroke-width="0.1" x1="13.25" y1="20.50000000000000000" x2="13.25" y2="22.83333333333333333333333333"/><line stroke="blue" stroke-width="0.1" x1="13.2" y1="21.66666666666666675" x2="14.4" y2="21.66666666666666675"/><line stroke="blue" stroke-width="0.1" x1="14.45" y1="20.50000000000000000" x2="14.45" y2="22.83333333333333333333333333"/><line stroke="blue" stroke-width="0.1" x1="14.4" y1="21.66666666666666675" x2="18.0" y2="21.66666666666666675"/><line stroke="blue" stroke-width="0.1" x1="18.05" y1="20.50000000000000000" x2="18.05" y2="22.83333333333333333333333333"/><line stroke="blue" stroke-width="0.1" x1="18.0" y1="21.66666666666666675" x2="21.0" y2="21.66666666666666675"/><line stroke="blue" stroke-width="0.1" x1="21.05" y1="20.50000000000000000" x2="21.05" y2="22.83333333333333333333333333"/><line stroke="blue" stroke-width="0.1" x1="21.0" y1="21.66666666666666675" x2="23.7" y2="21.66666666666666675"/><line stroke="blue" stroke-width="0.1" x1="23.75" y1="20.50000000000000000" x2="23.75" y2="22.83333333333333333333333333"/><line stroke="blue" stroke-width="0.1" x1="23.7" y1="21.66666666666666675" x2="24.6" y2="21.66666666666666675"/><line stroke="blue" stroke-width="0.1" x1="24.65" y1="20.50000000000000000" x2="24.65" y2="22.83333333333333333333333333"/><line stroke="blue" stroke-width="0.1" x1="24.6" y1="21.66666666666666675" x2="28.2" y2="21.66666666666666675"/><line stroke="blue" stroke-width="0.1" x1="28.25" y1="20.50000000000000000" x2="28.25" y2="22.83333333333333333333333333"/><line stroke="blue" stroke-width="0.1" x1="28.2" y1="21.66666666666666675" x2="30.0" y2="21.66666666666666675"/><line stroke="blue" stroke-width="0.1" x1="30.05" y1="20.50000000000000000" x2="30.05" y2="22.83333333333333333333333333"/><line stroke="blue" stroke-width="0.1" x1="30.0" y1="21.66666666666666675" x2="40.0" y2="21.66666666666666675"/><line stroke="blue" stroke-width="0.1" x1="40.05" y1="20.50000000000000000" x2="40.05" y2="22.83333333333333333333333333"/><line stroke="blue" stroke-width="0.1" x1="40.0" y1="21.66666666666666675" x2="44.0" y2="21.66666666666666675"/><line stroke="blue" stroke-width="0.1" x1="44.05" y1="20.50000000000000000" x2="44.05" y2="22.83333333333333333333333333"/><line stroke="blue" stroke-width="0.1" x1="44.0" y1="21.66666666666666675" x2="52.0" y2="21.66666666666666675"/><line stroke="blue" stroke-width="0.1" x1="52.05" y1="20.50000000000000000" x2="52.05" y2="22.83333333333333333333333333"/><line stroke="blue" stroke-width="0.1" x1="52.0" y1="21.66666666666666675" x2="54.4" y2="21.66666666666666675"/><line stroke="blue" stroke-width="0.1" x1="54.45" y1="20.50000000000000000" x2="54.45" y2="22.83333333333333333333333333"/><line stroke="blue" stroke-width="0.1" x1="54.4" y1="21.66666666666666675" x2="59.2" y2="21.66666666666666675"/><line stroke="blue" stroke-width="0.1" x1="59.25" y1="20.50000000000000000" x2="59.25" y2="22.83333333333333333333333333"/><line stroke="blue" stroke-width="0.1" x1="59.2" y1="21.66666666666666675" x2="60.4" y2="21.66666666666666675"/><line stroke="blue" stroke-width="0.1" x1="60.45" y1="20.50000000000000000" x2="60.45" y2="22.83333333333333333333333333"/><line stroke="blue" stroke-width="0.1" x1="60.4" y1="21.66666666666666675" x2="64.0" y2="21.66666666666666675"/><line stroke="blue" stroke-width="0.1" x1="64.05" y1="20.50000000000000000" x2="64.05" y2="22.83333333333333333333333333"/><line stroke="blue" stroke-width="0.1" x1="64.0" y1="21.66666666666666675" x2="65.6" y2="21.66666666666666675"/><line stroke="blue" stroke-width="0.1" x1="65.65" y1="20.50000000000000000" x2="65.65" y2="22.83333333333333333333333333"/><line stroke="blue" stroke-width="0.1" x1="65.6" y1="21.66666666666666675" x2="68.8" y2="21.66666666666666675"/><line stroke="blue" stroke-width="0.1" x1="68.85" y1="20.50000000000000000" x2="68.85" y2="22.83333333333333333333333333"/><line stroke="blue" stroke-width="0.1" x1="68.8" y1="21.66666666666666675" x2="73.6" y2="21.66666666666666675"/><line stroke="blue" stroke-width="0.1" x1="73.65" y1="20.50000000000000000" x2="73.65" y2="22.83333333333333333333333333"/><line stroke="blue" stroke-width="0.1" x1="73.6" y1="21.66666666666666675" x2="80.0" y2="21.66666666666666675"/><line stroke="blue" stroke-width="0.1" x1="80.05" y1="20.50000000000000000" x2="80.05" y2="22.83333333333333333333333333"/><line stroke="blue" stroke-width="0.1" x1="80.0" y1="21.66666666666666675" x2="81.6" y2="21.66666666666666675"/><line stroke="blue" stroke-width="0.1" x1="81.65" y1="20.50000000000000000" x2="81.65" y2="22.83333333333333333333333333"/><line stroke="blue" stroke-width="0.1" x1="81.6" y1="21.66666666666666675" x2="84.8" y2="21.66666666666666675"/><line stroke="blue" stroke-width="0.1" x1="84.85" y1="20.50000000000000000" x2="84.85" y2="22.83333333333333333333333333"/><line stroke="blue" stroke-width="0.1" x1="84.8" y1="21.66666666666666675" x2="85.6" y2="21.66666666666666675"/><line stroke="blue" stroke-width="0.1" x1="85.65" y1="20.50000000000000000" x2="85.65" y2="22.83333333333333333333333333"/><line stroke="blue" stroke-width="0.1" x1="85.6" y1="21.66666666666666675" x2="88.0" y2="21.66666666666666675"/><line stroke="blue" stroke-width="0.1" x1="88.05" y1="20.50000000000000000" x2="88.05" y2="22.83333333333333333333333333"/><line stroke="blue" stroke-width="0.1" x1="88.0" y1="21.66666666666666675" x2="89.8" y2="21.66666666666666675"/><line stroke="blue" stroke-width="0.1" x1="89.85" y1="20.50000000000000000" x2="89.85" y2="22.83333333333333333333333333"/><line stroke="blue" stroke-width="0.1" x1="89.8" y1="21.66666666666666675" x2="90.4" y2="21.66666666666666675"/><line stroke="blue" stroke-width="0.1" x1="90.45" y1="20.50000000000000000" x2="90.45" y2="22.83333333333333333333333333"/><line stroke="blue" stroke-width="0.1" x1="90.4" y1="21.66666666666666675" x2="92.8" y2="21.66666666666666675"/><line stroke="blue" stroke-width="0.1" x1="92.85" y1="20.50000000000000000" x2="92.85" y2="22.83333333333333333333333333"/><line stroke="blue" stroke-width="0.1" x1="92.8" y1="21.66666666666666675" x2="94.0" y2="21.66666666666666675"/><line stroke="blue" stroke-width="0.1" x1="94.05" y1="20.50000000000000000" x2="94.05" y2="22.83333333333333333333333333"/><line stroke="blue" stroke-width="0.1" x1="94.0" y1="21.66666666666666675" x2="98.0" y2="21.66666666666666675"/><line stroke="blue" stroke-width="0.1" x1="98.05" y1="20.50000000000000000" x2="98.05" y2="22.83333333333333333333333333"/><line stroke="blue" stroke-width="0.1" x1="99.95" y1="20.50000000000000000" x2="99.95" y2="22.83333333333333333333333333"/><line stroke="blue" stroke-width="0.1" x1="98.0" y1="21.66666666666666675" x2="100.0" y2="21.66666666666666675"/></g></g></g></g><g><line stroke="green" stroke-width="0.1" x1="0" y1="0" x2="210" y2="0"/><line stroke="green" stroke-width="0.1" x1="0" y1="10" x2="210" y2="10"/><line stroke="green" stroke-width="0.1" x1="0" y1="20" x2="210" y2="20"/><line stroke="green" stroke-width="0.1" x1="0" y1="30" x2="210" y2="30"/><line stroke="green" stroke-width="0.1" x1="0" y1="40" x2="210" y2="40"/><line stroke="green" stroke-width="0.1" x1="0" y1="50" x2="210" y2="50"/><line stroke="green" stroke-width="0.1" x1="0" y1="60" x2="210" y2="60"/><line stroke="green" stroke-width="0.1" x1="0" y1="70" x2="210" y2="70"/><line stroke="green" stroke-width="0.1" x1="0" y1="80" x2="210" y2="80"/><line stroke="green" stroke-width="0.1" x1="0" y1="90" x2="210" y2="90"/><line stroke="green" stroke-width="0.1" x1="0" y1="100" x2="210" y2="100"/><line stroke="green" stroke-width="0.1" x1="0" y1="110" x2="210" y2="110"/><line stroke="green" stroke-width="0.1" x1="0" y1="120" x2="210" y2="120"/><line stroke="green" stroke-width="0.1" x1="0" y1="130" x2="210" y2="130"/><line stroke="green" stroke-width="0.1" x1="0" y1="140" x2="210" y2="140"/><line stroke="green" stroke-width="0.1" x1="0" y1="150" x2="210" y2="150"/><line stroke="green" stroke-width="0.1" x1="0" y1="160" x2="210" y2="160"/><line stroke="green" stroke-width="0.1" x1="0" y1="170" x2="210" y2="170"/><line stroke="green" stroke-width="0.1" x1="0" y1="180" x2="210" y2="180"/><line stroke="green" stroke-width="0.1" x1="0" y1="190" x2="210" y2="190"/><line stroke="green" stroke-width="0.1" x1="0" y1="200" x2="210" y2="200"/><line stroke="green" stroke-width="0.1" x1="0" y1="210" x2="210" y2="210"/><line stroke="green" stroke-width="0.1" x1="0" y1="220" x2="210" y2="220"/><line stroke="green" stroke-width="0.1" x1="0" y1="230" x2="210" y2="230"/><line stroke="green" stroke-width="0.1" x1="0" y1="240" x2="210" y2="240"/><line stroke="green" stroke-width="0.1" x1="0" y1="250" x2="210" y2="250"/><line stroke="green" stroke-width="0.1" x1="0" y1="260" x2="210" y2="260"/><line stroke="green" stroke-width="0.1" x1="0" y1="270" x2="210" y2="270"/><line stroke="green" stroke-width="0.1" x1="0" y1="280" x2="210" y2="280"/><line stroke="green" stroke-width="0.1" x1="0" y1="290" x2="210" y2="290"/><line stroke="green" stroke-width="0.1" x1="0" y1="0" x2="0" y2="297"/><line stroke="green" stroke-width="0.1" x1="10" y1="0" x2="10" y2="297"/><line stroke="green" stroke-width="0.1" x1="20" y1="0" x2="20" y2="297"/><line stroke="green" stroke-width="0.1" x1="30" y1="0" x2="30" y2="297"/><line stroke="green" stroke-width="0.1" x1="40" y1="0" x2="40" y2="297"/><line stroke="green" stroke-width="0.1" x1="50" y1="0" x2="50" y2="297"/><line stroke="green" stroke-width="0.1" x1="60" y1="0" x2="60" y2="297"/><line stroke="green" stroke-width="0.1" x1="70" y1="0" x2="70" y2="297"/><line stroke="green" stroke-width="0.1" x1="80" y1="0" x2="80" y2="297"/><line stroke="green" stroke-width="0.1" x1="90" y1="0" x2="90" y2="297"/><line stroke="green" stroke-width="0.1" x1="100" y1="0" x2="100" y2="297"/><line stroke="green" stroke-width="0.1" x1="110" y1="0" x2="110" y2="297"/><line stroke="green" stroke-width="0.1" x1="120" y1="0" x2="120" y2="297"/><line stroke="green" stroke-width="0.1" x1="130" y1="0" x2="130" y2="297"/><line stroke="green" stroke-width="0.1" x1="140" y1="0" x2="140" y2="297"/><line stroke="green" stroke-width="0.1" x1="150" y1="0" x2="150" y2="297"/><line stroke="green" stroke-width="0.1" x1="160" y1="0" x2="160" y2="297"/><line stroke="green" stroke-width="0.1" x1="170" y1="0" x2="170" y2="297"/><line stroke="green" stroke-width="0.1" x1="180" y1="0" x2="180" y2="297"/><line stroke="green" stroke-width="0.1" x1="190" y1="0" x2="190" y2="297"/><line stroke="green" stroke-width="0.1" x1="200" y1="0" x2="200" y2="297"/><line stroke="green" stroke-width="0.1" x1="210" y1="0" x2="210" y2="297"/></g></svg>