<?xml version="1.0" encoding="UTF-8" standalone="no"?>
<!DOCTYPE score-partwise PUBLIC "-//Recordare//DTD MusicXML 3.0 Partwise//EN" "http://www.musicxml.org/dtds/partwise.dtd">
<score-partwise version="3.0">
  <defaults>
    <scaling>
      <millimeters>7.2319</millimeters>
      <tenths>40</tenths>
    </scaling>
    <page-layout>
      <page-height>1162</page-height>
      <page-width>1643</page-width>
      <page-margins type="both">
        <left-margin>111</left-margin>
        <right-margin>55</right-margin>
        <top-margin>83</top-margin>
        <bottom-margin>100</bottom-margin>
      </page-margins>
    </page-layout>
    <system-layout>
      <system-margins>
        <left-margin>0</left-margin>
        <right-margin>0</right-margin>
      </system-margins>
      <system-distance>180</system-distance>
      <top-system-distance>150</top-system-distance>
    </system-layout>
    <staff-layout>
      <staff-distance>150</staff-distance>
    </staff-layout>
    <appearance>
      <line-width type="tuplet bracket">2.4</line-width>
    </appearance>
  </defaults>
  <credit page="1">
    <credit-type>title</credit-type>
    <credit-words justify="center" default-x="821" default-y="1119" font-size="24" valign="top">module: 0</credit-words>
  </credit>
  <credit page="1">
    <credit-type>subtitle</credit-type>
    <credit-words justify="center" default-x="821" default-y="1069" font-size="18" valign="top">duration: 25"</credit-words>
  </credit>
  <part-list>
    <score-part id="p1">
      <part-name print-object="no">none</part-name>
    </score-part>
  </part-list>
  <part id="p1">
    <measure number="1">
      <attributes>
        <divisions>1</divisions>
        <time>
          <beats>4</beats>
          <beat-type>4</beat-type>
        </time>
      </attributes>
      <direction>
        <direction-type>
          <metronome relative-y="40">
            <beat-unit>quarter</beat-unit>
            <per-minute>72</per-minute>
          </metronome>
        </direction-type>
        <sound tempo="72"/>
      </direction>
      <attributes>
        <clef>
          <sign>G</sign>
          <line>2</line>
        </clef>
      </attributes>
      <note>
        <pitch>
          <step>B</step>
          <alter>-1</alter>
          <octave>4</octave>
        </pitch>
        <duration>4</duration>
        <tie type="start"/>
        <voice>1</voice>
        <type>whole</type>
        <accidental>flat</accidental>
        <notations>
          <tied number="1" type="start"/>
        </notations>
        <lyric number="1">
          <text>2</text>
        </lyric>
      </note>
    </measure>
    <measure number="2">
      <attributes>
        <divisions>1</divisions>
      </attributes>
      <note>
        <pitch>
          <step>B</step>
          <alter>-1</alter>
          <octave>4</octave>
        </pitch>
        <duration>4</duration>
        <tie type="stop"/>
        <tie type="start"/>
        <voice>1</voice>
        <type>whole</type>
        <notations>
          <tied number="1" type="stop"/>
          <tied number="1" type="start"/>
        </notations>
      </note>
    </measure>
    <measure number="3">
      <attributes>
        <divisions>7</divisions>
      </attributes>
      <note>
        <pitch>
          <step>B</step>
          <alter>-1</alter>
          <octave>4</octave>
        </pitch>
        <duration>7</duration>
        <tie type="stop"/>
        <voice>1</voice>
        <type>quarter</type>
        <notations>
          <tied number="1" type="stop"/>
        </notations>
      </note>
      <note>
        <pitch>
          <step>C</step>
          <alter>-0.5</alter>
          <octave>5</octave>
        </pitch>
        <duration>7</duration>
        <voice>1</voice>
        <type>quarter</type>
        <accidental>quarter-flat</accidental>
        <lyric number="1">
          <text>4</text>
        </lyric>
      </note>
      <note>
        <pitch>
          <step>G</step>
          <alter>-0.5</alter>
          <octave>4</octave>
        </pitch>
        <duration>6</duration>
        <voice>1</voice>
        <type>quarter</type>
        <dot/>
        <accidental>quarter-flat</accidental>
        <time-modification>
          <actual-notes>7</actual-notes>
          <normal-notes>4</normal-notes>
          <normal-type>16th</normal-type>
        </time-modification>
        <notations>
          <tuplet number="1" type="start" bracket="yes" placement="above"/>
        </notations>
        <lyric number="1">
          <text>4</text>
        </lyric>
      </note>
      <note>
        <pitch>
          <step>E</step>
          <alter>-1</alter>
          <octave>5</octave>
        </pitch>
        <duration>1</duration>
        <tie type="start"/>
        <voice>1</voice>
        <type>16th</type>
        <accidental>flat</accidental>
        <time-modification>
          <actual-notes>7</actual-notes>
          <normal-notes>4</normal-notes>
          <normal-type>16th</normal-type>
        </time-modification>
        <beam number="1">end</beam>
        <beam number="2">end</beam>
        <notations>
          <tied number="1" type="start"/>
        </notations>
        <notations>
          <tuplet number="1" type="stop" bracket="yes" placement="above"/>
        </notations>
        <lyric number="1">
          <text>4</text>
        </lyric>
      </note>
      <note>
        <pitch>
          <step>E</step>
          <alter>-1</alter>
          <octave>5</octave>
        </pitch>
        <duration>4</duration>
        <tie type="stop"/>
        <voice>1</voice>
        <type>quarter</type>
        <time-modification>
          <actual-notes>7</actual-notes>
          <normal-notes>4</normal-notes>
          <normal-type>16th</normal-type>
        </time-modification>
        <notations>
          <tied number="1" type="stop"/>
        </notations>
        <notations>
          <tuplet number="1" type="start" bracket="yes" placement="above"/>
        </notations>
      </note>
      <note>
        <pitch>
          <step>A</step>
          <alter>0.5</alter>
          <octave>4</octave>
        </pitch>
        <duration>3</duration>
        <tie type="start"/>
        <voice>1</voice>
        <type>eighth</type>
        <dot/>
        <accidental>quarter-sharp</accidental>
        <time-modification>
          <actual-notes>7</actual-notes>
          <normal-notes>4</normal-notes>
          <normal-type>16th</normal-type>
        </time-modification>
        <beam number="1">end</beam>
        <notations>
          <tied number="1" type="start"/>
        </notations>
        <notations>
          <tuplet number="1" type="stop" bracket="yes" placement="above"/>
        </notations>
        <lyric number="1">
          <text>4</text>
        </lyric>
      </note>
    </measure>
    <measure number="4">
      <attributes>
        <divisions>42</divisions>
      </attributes>
      <note>
        <pitch>
          <step>A</step>
          <alter>0.5</alter>
          <octave>4</octave>
        </pitch>
        <duration>6</duration>
        <tie type="stop"/>
        <voice>1</voice>
        <type>16th</type>
        <time-modification>
          <actual-notes>7</actual-notes>
          <normal-notes>4</normal-notes>
          <normal-type>16th</normal-type>
        </time-modification>
        <beam number="1">begin</beam>
        <beam number="2">begin</beam>
        <notations>
          <tied number="1" type="stop"/>
        </notations>
        <notations>
          <tuplet number="1" type="start" bracket="yes" placement="above"/>
        </notations>
      </note>
      <note>
        <pitch>
          <step>D</step>
          <octave>4</octave>
        </pitch>
        <duration>18</duration>
        <voice>1</voice>
        <type>eighth</type>
        <dot/>
        <time-modification>
          <actual-notes>7</actual-notes>
          <normal-notes>4</normal-notes>
          <normal-type>16th</normal-type>
        </time-modification>
        <beam number="1">continue</beam>
        <lyric number="1">
          <text>4</text>
        </lyric>
      </note>
      <note>
        <pitch>
          <step>E</step>
          <octave>4</octave>
        </pitch>
        <duration>12</duration>
        <voice>1</voice>
        <type>eighth</type>
        <time-modification>
          <actual-notes>7</actual-notes>
          <normal-notes>4</normal-notes>
          <normal-type>16th</normal-type>
        </time-modification>
        <beam number="1">continue</beam>
        <lyric number="1">
          <text>4</text>
        </lyric>
      </note>
      <note>
        <pitch>
          <step>C</step>
          <alter>0.5</alter>
          <octave>5</octave>
        </pitch>
        <duration>6</duration>
        <voice>1</voice>
        <type>16th</type>
        <accidental>quarter-sharp</accidental>
        <time-modification>
          <actual-notes>7</actual-notes>
          <normal-notes>4</normal-notes>
          <normal-type>16th</normal-type>
        </time-modification>
        <beam number="1">end</beam>
        <beam number="2">end</beam>
        <notations>
          <tuplet number="1" type="stop" bracket="yes" placement="above"/>
        </notations>
        <lyric number="1">
          <text>4</text>
        </lyric>
      </note>
      <note>
        <pitch>
          <step>A</step>
          <alter>-0.5</alter>
          <octave>4</octave>
        </pitch>
        <duration>6</duration>
        <voice>1</voice>
        <type>16th</type>
        <accidental>quarter-flat</accidental>
        <time-modification>
          <actual-notes>7</actual-notes>
          <normal-notes>4</normal-notes>
          <normal-type>16th</normal-type>
        </time-modification>
        <beam number="1">begin</beam>
        <beam number="2">begin</beam>
        <notations>
          <tuplet number="1" type="start" bracket="yes" placement="above"/>
        </notations>
        <lyric number="1">
          <text>4</text>
        </lyric>
      </note>
      <note>
        <pitch>
          <step>C</step>
          <alter>0.5</alter>
          <octave>5</octave>
        </pitch>
        <duration>6</duration>
        <voice>1</voice>
        <type>16th</type>
        <accidental>quarter-sharp</accidental>
        <time-modification>
          <actual-notes>7</actual-notes>
          <normal-notes>4</normal-notes>
          <normal-type>16th</normal-type>
        </time-modification>
        <beam number="1">continue</beam>
        <beam number="2">continue</beam>
        <lyric number="1">
          <text>4</text>
        </lyric>
      </note>
      <note>
        <pitch>
          <step>A</step>
          <alter>0</alter>
          <octave>4</octave>
        </pitch>
        <duration>6</duration>
        <voice>1</voice>
        <type>16th</type>
        <accidental>natural</accidental>
        <time-modification>
          <actual-notes>7</actual-notes>
          <normal-notes>4</normal-notes>
          <normal-type>16th</normal-type>
        </time-modification>
        <beam number="1">continue</beam>
        <beam number="2">continue</beam>
        <lyric number="1">
          <text>4</text>
        </lyric>
      </note>
      <note>
        <pitch>
          <step>D</step>
          <octave>4</octave>
        </pitch>
        <duration>6</duration>
        <voice>1</voice>
        <type>16th</type>
        <time-modification>
          <actual-notes>7</actual-notes>
          <normal-notes>4</normal-notes>
          <normal-type>16th</normal-type>
        </time-modification>
        <beam number="1">continue</beam>
        <beam number="2">continue</beam>
        <lyric number="1">
          <text>4</text>
        </lyric>
      </note>
      <note>
        <pitch>
          <step>D</step>
          <alter>0.5</alter>
          <octave>4</octave>
        </pitch>
        <duration>6</duration>
        <voice>1</voice>
        <type>16th</type>
        <accidental>quarter-sharp</accidental>
        <time-modification>
          <actual-notes>7</actual-notes>
          <normal-notes>4</normal-notes>
          <normal-type>16th</normal-type>
        </time-modification>
        <beam number="1">continue</beam>
        <beam number="2">continue</beam>
        <lyric number="1">
          <text>4</text>
        </lyric>
      </note>
      <note>
        <pitch>
          <step>B</step>
          <alter>-1</alter>
          <octave>4</octave>
        </pitch>
        <duration>6</duration>
        <voice>1</voice>
        <type>16th</type>
        <accidental>flat</accidental>
        <time-modification>
          <actual-notes>7</actual-notes>
          <normal-notes>4</normal-notes>
          <normal-type>16th</normal-type>
        </time-modification>
        <beam number="1">continue</beam>
        <beam number="2">continue</beam>
        <lyric number="1">
          <text>4</text>
        </lyric>
      </note>
      <note>
        <pitch>
          <step>C</step>
          <alter>0.5</alter>
          <octave>5</octave>
        </pitch>
        <duration>6</duration>
        <voice>1</voice>
        <type>16th</type>
        <accidental>quarter-sharp</accidental>
        <time-modification>
          <actual-notes>7</actual-notes>
          <normal-notes>4</normal-notes>
          <normal-type>16th</normal-type>
        </time-modification>
        <beam number="1">end</beam>
        <beam number="2">end</beam>
        <notations>
          <tuplet number="1" type="stop" bracket="yes" placement="above"/>
        </notations>
        <lyric number="1">
          <text>4</text>
        </lyric>
      </note>
      <note>
        <pitch>
          <step>D</step>
          <alter>0.5</alter>
          <octave>4</octave>
        </pitch>
        <duration>7</duration>
        <voice>1</voice>
        <type>16th</type>
        <accidental>quarter-sharp</accidental>
        <time-modification>
          <actual-notes>6</actual-notes>
          <normal-notes>4</normal-notes>
          <normal-type>16th</normal-type>
        </time-modification>
        <beam number="1">begin</beam>
        <beam number="2">begin</beam>
        <notations>
          <tuplet number="1" type="start" bracket="yes" placement="above"/>
        </notations>
        <lyric number="1">
          <text>4</text>
        </lyric>
      </note>
      <note>
        <pitch>
          <step>A</step>
          <octave>4</octave>
        </pitch>
        <duration>14</duration>
        <voice>1</voice>
        <type>eighth</type>
        <time-modification>
          <actual-notes>6</actual-notes>
          <normal-notes>4</normal-notes>
          <normal-type>16th</normal-type>
        </time-modification>
        <beam number="1">continue</beam>
        <lyric number="1">
          <text>4</text>
        </lyric>
      </note>
      <note>
        <pitch>
          <step>C</step>
          <alter>1</alter>
          <octave>5</octave>
        </pitch>
        <duration>21</duration>
        <tie type="start"/>
        <voice>1</voice>
        <type>eighth</type>
        <dot/>
        <accidental>sharp</accidental>
        <time-modification>
          <actual-notes>6</actual-notes>
          <normal-notes>4</normal-notes>
          <normal-type>16th</normal-type>
        </time-modification>
        <beam number="1">end</beam>
        <notations>
          <tied number="1" type="start"/>
        </notations>
        <notations>
          <tuplet number="1" type="stop" bracket="yes" placement="above"/>
        </notations>
        <lyric number="1">
          <text>4</text>
        </lyric>
      </note>
      <note>
        <pitch>
          <step>C</step>
          <alter>1</alter>
          <octave>5</octave>
        </pitch>
        <duration>6</duration>
        <tie type="stop"/>
        <voice>1</voice>
        <type>16th</type>
        <time-modification>
          <actual-notes>7</actual-notes>
          <normal-notes>4</normal-notes>
          <normal-type>16th</normal-type>
        </time-modification>
        <beam number="1">begin</beam>
        <beam number="2">begin</beam>
        <notations>
          <tied number="1" type="stop"/>
        </notations>
        <notations>
          <tuplet number="1" type="start" bracket="yes" placement="above"/>
        </notations>
      </note>
      <note>
        <pitch>
          <step>A</step>
          <alter>0.5</alter>
          <octave>4</octave>
        </pitch>
        <duration>36</duration>
        <voice>1</voice>
        <type>quarter</type>
        <dot/>
        <accidental>quarter-sharp</accidental>
        <time-modification>
          <actual-notes>7</actual-notes>
          <normal-notes>4</normal-notes>
          <normal-type>16th</normal-type>
        </time-modification>
        <notations>
          <tuplet number="1" type="stop" bracket="yes" placement="above"/>
        </notations>
        <lyric number="1">
          <text>4</text>
        </lyric>
      </note>
    </measure>
    <measure number="5">
      <attributes>
        <divisions>1</divisions>
      </attributes>
      <note>
        <pitch>
          <step>B</step>
          <octave>4</octave>
        </pitch>
        <duration>1</duration>
        <voice>1</voice>
        <type>quarter</type>
        <lyric number="1">
          <text>4</text>
        </lyric>
      </note>
      <note>
        <pitch>
          <step>E</step>
          <alter>0.5</alter>
          <octave>4</octave>
        </pitch>
        <duration>3</duration>
        <tie type="start"/>
        <voice>1</voice>
        <type>half</type>
        <dot/>
        <accidental>quarter-sharp</accidental>
        <notations>
          <tied number="1" type="start"/>
        </notations>
        <lyric number="1">
          <text>7</text>
        </lyric>
      </note>
    </measure>
    <measure number="6">
      <attributes>
        <divisions>1</divisions>
      </attributes>
      <note>
        <pitch>
          <step>E</step>
          <alter>0.5</alter>
          <octave>4</octave>
        </pitch>
        <duration>4</duration>
        <tie type="stop"/>
        <tie type="start"/>
        <voice>1</voice>
        <type>whole</type>
        <notations>
          <tied number="1" type="stop"/>
          <tied number="1" type="start"/>
        </notations>
      </note>
    </measure>
    <measure number="7">
      <attributes>
        <divisions>1</divisions>
      </attributes>
      <note>
        <pitch>
          <step>E</step>
          <alter>0.5</alter>
          <octave>4</octave>
        </pitch>
        <duration>4</duration>
        <tie type="stop"/>
        <tie type="start"/>
        <voice>1</voice>
        <type>whole</type>
        <notations>
          <tied number="1" type="stop"/>
          <tied number="1" type="start"/>
        </notations>
      </note>
    </measure>
    <measure number="8">
      <attributes>
        <divisions>1</divisions>
        <time>
          <beats>2</beats>
          <beat-type>4</beat-type>
        </time>
      </attributes>
      <barline>
        <bar-style>light-heavy</bar-style>
      </barline>
      <note>
        <pitch>
          <step>E</step>
          <alter>0.5</alter>
          <octave>4</octave>
        </pitch>
        <duration>2</duration>
        <tie type="stop"/>
        <voice>1</voice>
        <type>half</type>
        <notations>
          <tied number="1" type="stop"/>
        </notations>
      </note>
    </measure>
  </part>
</score-partwise>
