<svg xmlns="http://www.w3.org/2000/svg" viewBox="0 0 210 297" width="210mm" height="297mm"><g><rect stroke="black" stroke-width="0.1" x="0.05" y="0.05" width="209.9" height="296.9" fill="white"/></g><g><line stroke="green" stroke-width="0.05" x1="0" y1="0" x2="210" y2="0"/><line stroke="green" stroke-width="0.05" x1="0" y1="10" x2="210" y2="10"/><line stroke="green" stroke-width="0.05" x1="0" y1="20" x2="210" y2="20"/><line stroke="green" stroke-width="0.05" x1="0" y1="30" x2="210" y2="30"/><line stroke="green" stroke-width="0.05" x1="0" y1="40" x2="210" y2="40"/><line stroke="green" stroke-width="0.05" x1="0" y1="50" x2="210" y2="50"/><line stroke="green" stroke-width="0.05" x1="0" y1="60" x2="210" y2="60"/><line stroke="green" stroke-width="0.05" x1="0" y1="70" x2="210" y2="70"/><line stroke="green" stroke-width="0.05" x1="0" y1="80" x2="210" y2="80"/><line stroke="green" stroke-width="0.05" x1="0" y1="90" x2="210" y2="90"/><line stroke="green" stroke-width="0.05" x1="0" y1="100" x2="210" y2="100"/><line stroke="green" stroke-width="0.05" x1="0" y1="110" x2="210" y2="110"/><line stroke="green" stroke-width="0.05" x1="0" y1="120" x2="210" y2="120"/><line stroke="green" stroke-width="0.05" x1="0" y1="130" x2="210" y2="130"/><line stroke="green" stroke-width="0.05" x1="0" y1="140" x2="210" y2="140"/><line stroke="green" stroke-width="0.05" x1="0" y1="150" x2="210" y2="150"/><line stroke="green" stroke-width="0.05" x1="0" y1="160" x2="210" y2="160"/><line stroke="green" stroke-width="0.05" x1="0" y1="170" x2="210" y2="170"/><line stroke="green" stroke-width="0.05" x1="0" y1="180" x2="210" y2="180"/><line stroke="green" stroke-width="0.05" x1="0" y1="190" x2="210" y2="190"/><line stroke="green" stroke-width="0.05" x1="0" y1="200" x2="210" y2="200"/><line stroke="green" stroke-width="0.05" x1="0" y1="210" x2="210" y2="210"/><line stroke="green" stroke-width="0.05" x1="0" y1="220" x2="210" y2="220"/><line stroke="green" stroke-width="0.05" x1="0" y1="230" x2="210" y2="230"/><line stroke="green" stroke-width="0.05" x1="0" y1="240" x2="210" y2="240"/><line stroke="green" stroke-width="0.05" x1="0" y1="250" x2="210" y2="250"/><line stroke="green" stroke-width="0.05" x1="0" y1="260" x2="210" y2="260"/><line stroke="green" stroke-width="0.05" x1="0" y1="270" x2="210" y2="270"/><line stroke="green" stroke-width="0.05" x1="0" y1="280" x2="210" y2="280"/><line stroke="green" stroke-width="0.05" x1="0" y1="290" x2="210" y2="290"/><line stroke="green" stroke-width="0.05" x1="0" y1="0" x2="0" y2="297"/><line stroke="green" stroke-width="0.05" x1="10" y1="0" x2="10" y2="297"/><line stroke="green" stroke-width="0.05" x1="20" y1="0" x2="20" y2="297"/><line stroke="green" stroke-width="0.05" x1="30" y1="0" x2="30" y2="297"/><line stroke="green" stroke-width="0.05" x1="40" y1="0" x2="40" y2="297"/><line stroke="green" stroke-width="0.05" x1="50" y1="0" x2="50" y2="297"/><line stroke="green" stroke-width="0.05" x1="60" y1="0" x2="60" y2="297"/><line stroke="green" stroke-width="0.05" x1="70" y1="0" x2="70" y2="297"/><line stroke="green" stroke-width="0.05" x1="80" y1="0" x2="80" y2="297"/><line stroke="green" stroke-width="0.05" x1="90" y1="0" x2="90" y2="297"/><line stroke="green" stroke-width="0.05" x1="100" y1="0" x2="100" y2="297"/><line stroke="green" stroke-width="0.05" x1="110" y1="0" x2="110" y2="297"/><line stroke="green" stroke-width="0.05" x1="120" y1="0" x2="120" y2="297"/><line stroke="green" stroke-width="0.05" x1="130" y1="0" x2="130" y2="297"/><line stroke="green" stroke-width="0.05" x1="140" y1="0" x2="140" y2="297"/><line stroke="green" stroke-width="0.05" x1="150" y1="0" x2="150" y2="297"/><line stroke="green" stroke-width="0.05" x1="160" y1="0" x2="160" y2="297"/><line stroke="green" stroke-width="0.05" x1="170" y1="0" x2="170" y2="297"/><line stroke="green" stroke-width="0.05" x1="180" y1="0" x2="180" y2="297"/><line stroke="green" stroke-width="0.05" x1="190" y1="0" x2="190" y2="297"/><line stroke="green" stroke-width="0.05" x1="200" y1="0" x2="200" y2="297"/><line stroke="green" stroke-width="0.05" x1="210" y1="0" x2="210" y2="297"/><line stroke="green" stroke-width="0.1" x1="0" y1="0" x2="210" y2="0"/><line stroke="green" stroke-width="0.1" x1="0" y1="10" x2="210" y2="10"/><line stroke="green" stroke-width="0.1" x1="0" y1="20" x2="210" y2="20"/><line stroke="green" stroke-width="0.1" x1="0" y1="30" x2="210" y2="30"/><line stroke="green" stroke-width="0.1" x1="0" y1="40" x2="210" y2="40"/><line stroke="green" stroke-width="0.1" x1="0" y1="50" x2="210" y2="50"/><line stroke="green" stroke-width="0.1" x1="0" y1="60" x2="210" y2="60"/><line stroke="green" stroke-width="0.1" x1="0" y1="70" x2="210" y2="70"/><line stroke="green" stroke-width="0.1" x1="0" y1="80" x2="210" y2="80"/><line stroke="green" stroke-width="0.1" x1="0" y1="90" x2="210" y2="90"/><line stroke="green" stroke-width="0.1" x1="0" y1="100" x2="210" y2="100"/><line stroke="green" stroke-width="0.1" x1="0" y1="110" x2="210" y2="110"/><line stroke="green" stroke-width="0.1" x1="0" y1="120" x2="210" y2="120"/><line stroke="green" stroke-width="0.1" x1="0" y1="130" x2="210" y2="130"/><line stroke="green" stroke-width="0.1" x1="0" y1="140" x2="210" y2="140"/><line stroke="green" stroke-width="0.1" x1="0" y1="150" x2="210" y2="150"/><line stroke="green" stroke-width="0.1" x1="0" y1="160" x2="210" y2="160"/><line stroke="green" stroke-width="0.1" x1="0" y1="170" x2="210" y2="170"/><line stroke="green" stroke-width="0.1" x1="0" y1="180" x2="210" y2="180"/><line stroke="green" stroke-width="0.1" x1="0" y1="190" x2="210" y2="190"/><line stroke="green" stroke-width="0.1" x1="0" y1="200" x2="210" y2="200"/><line stroke="green" stroke-width="0.1" x1="0" y1="210" x2="210" y2="210"/><line stroke="green" stroke-width="0.1" x1="0" y1="220" x2="210" y2="220"/><line stroke="green" stroke-width="0.1" x1="0" y1="230" x2="210" y2="230"/><line stroke="green" stroke-width="0.1" x1="0" y1="240" x2="210" y2="240"/><line stroke="green" stroke-width="0.1" x1="0" y1="250" x2="210" y2="250"/><line stroke="green" stroke-width="0.1" x1="0" y1="260" x2="210" y2="260"/><line stroke="green" stroke-width="0.1" x1="0" y1="270" x2="210" y2="270"/><line stroke="green" stroke-width="0.1" x1="0" y1="280" x2="210" y2="280"/><line stroke="green" stroke-width="0.1" x1="0" y1="290" x2="210" y2="290"/><line stroke="green" stroke-width="0.1" x1="0" y1="0" x2="0" y2="297"/><line stroke="green" stroke-width="0.1" x1="10" y1="0" x2="10" y2="297"/><line stroke="green" stroke-width="0.1" x1="20" y1="0" x2="20" y2="297"/><line stroke="green" stroke-width="0.1" x1="30" y1="0" x2="30" y2="297"/><line stroke="green" stroke-width="0.1" x1="40" y1="0" x2="40" y2="297"/><line stroke="green" stroke-width="0.1" x1="50" y1="0" x2="50" y2="297"/><line stroke="green" stroke-width="0.1" x1="60" y1="0" x2="60" y2="297"/><line stroke="green" stroke-width="0.1" x1="70" y1="0" x2="70" y2="297"/><line stroke="green" stroke-width="0.1" x1="80" y1="0" x2="80" y2="297"/><line stroke="green" stroke-width="0.1" x1="90" y1="0" x2="90" y2="297"/><line stroke="green" stroke-width="0.1" x1="100" y1="0" x2="100" y2="297"/><line stroke="green" stroke-width="0.1" x1="110" y1="0" x2="110" y2="297"/><line stroke="green" stroke-width="0.1" x1="120" y1="0" x2="120" y2="297"/><line stroke="green" stroke-width="0.1" x1="130" y1="0" x2="130" y2="297"/><line stroke="green" stroke-width="0.1" x1="140" y1="0" x2="140" y2="297"/><line stroke="green" stroke-width="0.1" x1="150" y1="0" x2="150" y2="297"/><line stroke="green" stroke-width="0.1" x1="160" y1="0" x2="160" y2="297"/><line stroke="green" stroke-width="0.1" x1="170" y1="0" x2="170" y2="297"/><line stroke="green" stroke-width="0.1" x1="180" y1="0" x2="180" y2="297"/><line stroke="green" stroke-width="0.1" x1="190" y1="0" x2="190" y2="297"/><line stroke="green" stroke-width="0.1" x1="200" y1="0" x2="200" y2="297"/><line stroke="green" stroke-width="0.1" x1="210" y1="0" x2="210" y2="297"/></g><g><line stroke="blue" stroke-width="0.5" x1="12.0319173177083334" y1="10.25" x2="18.0319173177083334" y2="10.25"/><text font-family="DejaVu Sans" font-size="4.233333333333333333333333333" fill="blue" x="9.7292154947916667" y="13.3361165364583334">1</text><line stroke="blue" stroke-width="0.5" x1="15.0319173177083334" y1="10" x2="15.0319173177083334" y2="12"/><line stroke="blue" stroke-width="0.25" x1="13.5319173177083334" y1="12.125" x2="16.5319173177083334" y2="12.125"/><line stroke="blue" stroke-width="0.5" x1="15.0319173177083334" y1="12" x2="15.0319173177083334" y2="14"/><line stroke="blue" stroke-width="0.25" x1="13.5319173177083334" y1="14.125" x2="16.5319173177083334" y2="14.125"/><line stroke="blue" stroke-width="0.5" x1="15.0319173177083334" y1="14" x2="15.0319173177083334" y2="16"/><line stroke="blue" stroke-width="0.25" x1="13.5319173177083334" y1="16.125" x2="16.5319173177083334" y2="16.125"/><line stroke="blue" stroke-width="0.5" x1="15.0319173177083334" y1="16" x2="15.0319173177083334" y2="18"/><line stroke="blue" stroke-width="0.25" x1="13.5319173177083334" y1="18.125" x2="16.5319173177083334" y2="18.125"/><line stroke="blue" stroke-width="0.5" x1="15.0319173177083334" y1="18" x2="15.0319173177083334" y2="20"/><line stroke="blue" stroke-width="0.25" x1="13.5319173177083334" y1="20.125" x2="16.5319173177083334" y2="20.125"/><line stroke="blue" stroke-width="0.5" x1="15.0319173177083334" y1="20" x2="15.0319173177083334" y2="22"/><line stroke="blue" stroke-width="0.25" x1="13.5319173177083334" y1="22.125" x2="16.5319173177083334" y2="22.125"/><line stroke="blue" stroke-width="0.5" x1="15.0319173177083334" y1="22" x2="15.0319173177083334" y2="24"/><line stroke="blue" stroke-width="0.25" x1="13.5319173177083334" y1="24.125" x2="16.5319173177083334" y2="24.125"/><line stroke="blue" stroke-width="0.5" x1="15.0319173177083334" y1="24" x2="15.0319173177083334" y2="26"/><line stroke="blue" stroke-width="0.25" x1="13.5319173177083334" y1="26.125" x2="16.5319173177083334" y2="26.125"/><line stroke="blue" stroke-width="0.5" x1="15.0319173177083334" y1="26" x2="15.0319173177083334" y2="28"/><line stroke="blue" stroke-width="0.25" x1="13.5319173177083334" y1="28.125" x2="16.5319173177083334" y2="28.125"/><line stroke="blue" stroke-width="0.5" x1="15.0319173177083334" y1="28" x2="15.0319173177083334" y2="30"/><line stroke="blue" stroke-width="0.5" x1="12.0319173177083334" y1="30.25" x2="18.0319173177083334" y2="30.25"/><text font-family="DejaVu Sans" font-size="4.233333333333333333333333333" fill="blue" x="9.7622884114583334" y="33.3919270833333335">2</text><line stroke="blue" stroke-width="0.5" x1="15.0319173177083334" y1="30" x2="15.0319173177083334" y2="32"/><line stroke="blue" stroke-width="0.25" x1="13.5319173177083334" y1="32.125" x2="16.5319173177083334" y2="32.125"/><line stroke="blue" stroke-width="0.5" x1="15.0319173177083334" y1="32" x2="15.0319173177083334" y2="34"/><line stroke="blue" stroke-width="0.25" x1="13.5319173177083334" y1="34.125" x2="16.5319173177083334" y2="34.125"/><line stroke="blue" stroke-width="0.5" x1="15.0319173177083334" y1="34" x2="15.0319173177083334" y2="36"/><line stroke="blue" stroke-width="0.25" x1="13.5319173177083334" y1="36.125" x2="16.5319173177083334" y2="36.125"/><line stroke="blue" stroke-width="0.5" x1="15.0319173177083334" y1="36" x2="15.0319173177083334" y2="38"/><line stroke="blue" stroke-width="0.25" x1="13.5319173177083334" y1="38.125" x2="16.5319173177083334" y2="38.125"/><line stroke="blue" stroke-width="0.5" x1="15.0319173177083334" y1="38" x2="15.0319173177083334" y2="40"/><line stroke="blue" stroke-width="0.25" x1="13.5319173177083334" y1="40.125" x2="16.5319173177083334" y2="40.125"/><line stroke="blue" stroke-width="0.5" x1="15.0319173177083334" y1="40" x2="15.0319173177083334" y2="42"/><line stroke="blue" stroke-width="0.25" x1="13.5319173177083334" y1="42.125" x2="16.5319173177083334" y2="42.125"/><line stroke="blue" stroke-width="0.5" x1="15.0319173177083334" y1="42" x2="15.0319173177083334" y2="44"/><line stroke="blue" stroke-width="0.25" x1="13.5319173177083334" y1="44.125" x2="16.5319173177083334" y2="44.125"/><line stroke="blue" stroke-width="0.5" x1="15.0319173177083334" y1="44" x2="15.0319173177083334" y2="46"/><line stroke="blue" stroke-width="0.25" x1="13.5319173177083334" y1="46.125" x2="16.5319173177083334" y2="46.125"/><line stroke="blue" stroke-width="0.5" x1="15.0319173177083334" y1="46" x2="15.0319173177083334" y2="48"/><line stroke="blue" stroke-width="0.25" x1="13.5319173177083334" y1="48.125" x2="16.5319173177083334" y2="48.125"/><line stroke="blue" stroke-width="0.5" x1="15.0319173177083334" y1="48" x2="15.0319173177083334" y2="50"/><line stroke="blue" stroke-width="0.5" x1="12.0319173177083334" y1="50.25" x2="18.0319173177083334" y2="50.25"/><text font-family="DejaVu Sans" font-size="4.233333333333333333333333333" fill="blue" x="9.6775390625000000" y="53.3919270833333335">3</text><line stroke="blue" stroke-width="0.5" x1="15.0319173177083334" y1="50" x2="15.0319173177083334" y2="52"/><line stroke="blue" stroke-width="0.25" x1="13.5319173177083334" y1="52.125" x2="16.5319173177083334" y2="52.125"/><line stroke="blue" stroke-width="0.5" x1="15.0319173177083334" y1="52" x2="15.0319173177083334" y2="54"/><line stroke="blue" stroke-width="0.25" x1="13.5319173177083334" y1="54.125" x2="16.5319173177083334" y2="54.125"/><line stroke="blue" stroke-width="0.5" x1="15.0319173177083334" y1="54" x2="15.0319173177083334" y2="56"/><line stroke="blue" stroke-width="0.25" x1="13.5319173177083334" y1="56.125" x2="16.5319173177083334" y2="56.125"/><line stroke="blue" stroke-width="0.5" x1="15.0319173177083334" y1="56" x2="15.0319173177083334" y2="58"/><line stroke="blue" stroke-width="0.25" x1="13.5319173177083334" y1="58.125" x2="16.5319173177083334" y2="58.125"/><line stroke="blue" stroke-width="0.5" x1="15.0319173177083334" y1="58" x2="15.0319173177083334" y2="60"/><line stroke="blue" stroke-width="0.25" x1="13.5319173177083334" y1="60.125" x2="16.5319173177083334" y2="60.125"/><line stroke="blue" stroke-width="0.5" x1="15.0319173177083334" y1="60" x2="15.0319173177083334" y2="62"/><line stroke="blue" stroke-width="0.25" x1="13.5319173177083334" y1="62.125" x2="16.5319173177083334" y2="62.125"/><line stroke="blue" stroke-width="0.5" x1="15.0319173177083334" y1="62" x2="15.0319173177083334" y2="64"/><line stroke="blue" stroke-width="0.25" x1="13.5319173177083334" y1="64.125" x2="16.5319173177083334" y2="64.125"/><line stroke="blue" stroke-width="0.5" x1="15.0319173177083334" y1="64" x2="15.0319173177083334" y2="66"/><line stroke="blue" stroke-width="0.25" x1="13.5319173177083334" y1="66.125" x2="16.5319173177083334" y2="66.125"/><line stroke="blue" stroke-width="0.5" x1="15.0319173177083334" y1="66" x2="15.0319173177083334" y2="68"/><line stroke="blue" stroke-width="0.25" x1="13.5319173177083334" y1="68.125" x2="16.5319173177083334" y2="68.125"/><line stroke="blue" stroke-width="0.5" x1="15.0319173177083334" y1="68" x2="15.0319173177083334" y2="70"/></g></svg>