<svg xmlns="http://www.w3.org/2000/svg" viewBox="0 0 210 297" width="210mm" height="297mm"><g><rect stroke="black" stroke-width="0.1" x="0.05" y="0.05" width="209.9" height="296.9" fill="white"/></g><g><line stroke="green" stroke-width="0.05" x1="0" y1="0" x2="210" y2="0"/><line stroke="green" stroke-width="0.05" x1="0" y1="10" x2="210" y2="10"/><line stroke="green" stroke-width="0.05" x1="0" y1="20" x2="210" y2="20"/><line stroke="green" stroke-width="0.05" x1="0" y1="30" x2="210" y2="30"/><line stroke="green" stroke-width="0.05" x1="0" y1="40" x2="210" y2="40"/><line stroke="green" stroke-width="0.05" x1="0" y1="50" x2="210" y2="50"/><line stroke="green" stroke-width="0.05" x1="0" y1="60" x2="210" y2="60"/><line stroke="green" stroke-width="0.05" x1="0" y1="70" x2="210" y2="70"/><line stroke="green" stroke-width="0.05" x1="0" y1="80" x2="210" y2="80"/><line stroke="green" stroke-width="0.05" x1="0" y1="90" x2="210" y2="90"/><line stroke="green" stroke-width="0.05" x1="0" y1="100" x2="210" y2="100"/><line stroke="green" stroke-width="0.05" x1="0" y1="110" x2="210" y2="110"/><line stroke="green" stroke-width="0.05" x1="0" y1="120" x2="210" y2="120"/><line stroke="green" stroke-width="0.05" x1="0" y1="130" x2="210" y2="130"/><line stroke="green" stroke-width="0.05" x1="0" y1="140" x2="210" y2="140"/><line stroke="green" stroke-width="0.05" x1="0" y1="150" x2="210" y2="150"/><line stroke="green" stroke-width="0.05" x1="0" y1="160" x2="210" y2="160"/><line stroke="green" stroke-width="0.05" x1="0" y1="170" x2="210" y2="170"/><line stroke="green" stroke-width="0.05" x1="0" y1="180" x2="210" y2="180"/><line stroke="green" stroke-width="0.05" x1="0" y1="190" x2="210" y2="190"/><line stroke="green" stroke-width="0.05" x1="0" y1="200" x2="210" y2="200"/><line stroke="green" stroke-width="0.05" x1="0" y1="210" x2="210" y2="210"/><line stroke="green" stroke-width="0.05" x1="0" y1="220" x2="210" y2="220"/><line stroke="green" stroke-width="0.05" x1="0" y1="230" x2="210" y2="230"/><line stroke="green" stroke-width="0.05" x1="0" y1="240" x2="210" y2="240"/><line stroke="green" stroke-width="0.05" x1="0" y1="250" x2="210" y2="250"/><line stroke="green" stroke-width="0.05" x1="0" y1="260" x2="210" y2="260"/><line stroke="green" stroke-width="0.05" x1="0" y1="270" x2="210" y2="270"/><line stroke="green" stroke-width="0.05" x1="0" y1="280" x2="210" y2="280"/><line stroke="green" stroke-width="0.05" x1="0" y1="290" x2="210" y2="290"/><line stroke="green" stroke-width="0.05" x1="0" y1="0" x2="0" y2="297"/><line stroke="green" stroke-width="0.05" x1="10" y1="0" x2="10" y2="297"/><line stroke="green" stroke-width="0.05" x1="20" y1="0" x2="20" y2="297"/><line stroke="green" stroke-width="0.05" x1="30" y1="0" x2="30" y2="297"/><line stroke="green" stroke-width="0.05" x1="40" y1="0" x2="40" y2="297"/><line stroke="green" stroke-width="0.05" x1="50" y1="0" x2="50" y2="297"/><line stroke="green" stroke-width="0.05" x1="60" y1="0" x2="60" y2="297"/><line stroke="green" stroke-width="0.05" x1="70" y1="0" x2="70" y2="297"/><line stroke="green" stroke-width="0.05" x1="80" y1="0" x2="80" y2="297"/><line stroke="green" stroke-width="0.05" x1="90" y1="0" x2="90" y2="297"/><line stroke="green" stroke-width="0.05" x1="100" y1="0" x2="100" y2="297"/><line stroke="green" stroke-width="0.05" x1="110" y1="0" x2="110" y2="297"/><line stroke="green" stroke-width="0.05" x1="120" y1="0" x2="120" y2="297"/><line stroke="green" stroke-width="0.05" x1="130" y1="0" x2="130" y2="297"/><line stroke="green" stroke-width="0.05" x1="140" y1="0" x2="140" y2="297"/><line stroke="green" stroke-width="0.05" x1="150" y1="0" x2="150" y2="297"/><line stroke="green" stroke-width="0.05" x1="160" y1="0" x2="160" y2="297"/><line stroke="green" stroke-width="0.05" x1="170" y1="0" x2="170" y2="297"/><line stroke="green" stroke-width="0.05" x1="180" y1="0" x2="180" y2="297"/><line stroke="green" stroke-width="0.05" x1="190" y1="0" x2="190" y2="297"/><line stroke="green" stroke-width="0.05" x1="200" y1="0" x2="200" y2="297"/><line stroke="green" stroke-width="0.05" x1="210" y1="0" x2="210" y2="297"/><line stroke="green" stroke-width="0.1" x1="0" y1="0" x2="210" y2="0"/><line stroke="green" stroke-width="0.1" x1="0" y1="10" x2="210" y2="10"/><line stroke="green" stroke-width="0.1" x1="0" y1="20" x2="210" y2="20"/><line stroke="green" stroke-width="0.1" x1="0" y1="30" x2="210" y2="30"/><line stroke="green" stroke-width="0.1" x1="0" y1="40" x2="210" y2="40"/><line stroke="green" stroke-width="0.1" x1="0" y1="50" x2="210" y2="50"/><line stroke="green" stroke-width="0.1" x1="0" y1="60" x2="210" y2="60"/><line stroke="green" stroke-width="0.1" x1="0" y1="70" x2="210" y2="70"/><line stroke="green" stroke-width="0.1" x1="0" y1="80" x2="210" y2="80"/><line stroke="green" stroke-width="0.1" x1="0" y1="90" x2="210" y2="90"/><line stroke="green" stroke-width="0.1" x1="0" y1="100" x2="210" y2="100"/><line stroke="green" stroke-width="0.1" x1="0" y1="110" x2="210" y2="110"/><line stroke="green" stroke-width="0.1" x1="0" y1="120" x2="210" y2="120"/><line stroke="green" stroke-width="0.1" x1="0" y1="130" x2="210" y2="130"/><line stroke="green" stroke-width="0.1" x1="0" y1="140" x2="210" y2="140"/><line stroke="green" stroke-width="0.1" x1="0" y1="150" x2="210" y2="150"/><line stroke="green" stroke-width="0.1" x1="0" y1="160" x2="210" y2="160"/><line stroke="green" stroke-width="0.1" x1="0" y1="170" x2="210" y2="170"/><line stroke="green" stroke-width="0.1" x1="0" y1="180" x2="210" y2="180"/><line stroke="green" stroke-width="0.1" x1="0" y1="190" x2="210" y2="190"/><line stroke="green" stroke-width="0.1" x1="0" y1="200" x2="210" y2="200"/><line stroke="green" stroke-width="0.1" x1="0" y1="210" x2="210" y2="210"/><line stroke="green" stroke-width="0.1" x1="0" y1="220" x2="210" y2="220"/><line stroke="green" stroke-width="0.1" x1="0" y1="230" x2="210" y2="230"/><line stroke="green" stroke-width="0.1" x1="0" y1="240" x2="210" y2="240"/><line stroke="green" stroke-width="0.1" x1="0" y1="250" x2="210" y2="250"/><line stroke="green" stroke-width="0.1" x1="0" y1="260" x2="210" y2="260"/><line stroke="green" stroke-width="0.1" x1="0" y1="270" x2="210" y2="270"/><line stroke="green" stroke-width="0.1" x1="0" y1="280" x2="210" y2="280"/><line stroke="green" stroke-width="0.1" x1="0" y1="290" x2="210" y2="290"/><line stroke="green" stroke-width="0.1" x1="0" y1="0" x2="0" y2="297"/><line stroke="green" stroke-width="0.1" x1="10" y1="0" x2="10" y2="297"/><line stroke="green" stroke-width="0.1" x1="20" y1="0" x2="20" y2="297"/><line stroke="green" stroke-width="0.1" x1="30" y1="0" x2="30" y2="297"/><line stroke="green" stroke-width="0.1" x1="40" y1="0" x2="40" y2="297"/><line stroke="green" stroke-width="0.1" x1="50" y1="0" x2="50" y2="297"/><line stroke="green" stroke-width="0.1" x1="60" y1="0" x2="60" y2="297"/><line stroke="green" stroke-width="0.1" x1="70" y1="0" x2="70" y2="297"/><line stroke="green" stroke-width="0.1" x1="80" y1="0" x2="80" y2="297"/><line stroke="green" stroke-width="0.1" x1="90" y1="0" x2="90" y2="297"/><line stroke="green" stroke-width="0.1" x1="100" y1="0" x2="100" y2="297"/><line stroke="green" stroke-width="0.1" x1="110" y1="0" x2="110" y2="297"/><line stroke="green" stroke-width="0.1" x1="120" y1="0" x2="120" y2="297"/><line stroke="green" stroke-width="0.1" x1="130" y1="0" x2="130" y2="297"/><line stroke="green" stroke-width="0.1" x1="140" y1="0" x2="140" y2="297"/><line stroke="green" stroke-width="0.1" x1="150" y1="0" x2="150" y2="297"/><line stroke="green" stroke-width="0.1" x1="160" y1="0" x2="160" y2="297"/><line stroke="green" stroke-width="0.1" x1="170" y1="0" x2="170" y2="297"/><line stroke="green" stroke-width="0.1" x1="180" y1="0" x2="180" y2="297"/><line stroke="green" stroke-width="0.1" x1="190" y1="0" x2="190" y2="297"/><line stroke="green" stroke-width="0.1" x1="200" y1="0" x2="200" y2="297"/><line stroke="green" stroke-width="0.1" x1="210" y1="0" x2="210" y2="297"/></g><g><line stroke="blue" stroke-width="0.5" x1="10.25" y1="13.2018717447916667" x2="10.25" y2="19.2018717447916667"/><text font-family="DejaVu Sans" font-size="4.233333333333333333333333333" fill="blue" x="9.784912109375" y="13.2018717447916667">1</text><line stroke="blue" stroke-width="0.5" x1="10" y1="16.2018717447916667" x2="12" y2="16.2018717447916667"/><line stroke="blue" stroke-width="0.25" x1="12.125" y1="14.7018717447916667" x2="12.125" y2="17.7018717447916667"/><line stroke="blue" stroke-width="0.5" x1="12" y1="16.2018717447916667" x2="14" y2="16.2018717447916667"/><line stroke="blue" stroke-width="0.25" x1="14.125" y1="14.7018717447916667" x2="14.125" y2="17.7018717447916667"/><line stroke="blue" stroke-width="0.5" x1="14" y1="16.2018717447916667" x2="16" y2="16.2018717447916667"/><line stroke="blue" stroke-width="0.25" x1="16.125" y1="14.7018717447916667" x2="16.125" y2="17.7018717447916667"/><line stroke="blue" stroke-width="0.5" x1="16" y1="16.2018717447916667" x2="18" y2="16.2018717447916667"/><line stroke="blue" stroke-width="0.25" x1="18.125" y1="14.7018717447916667" x2="18.125" y2="17.7018717447916667"/><line stroke="blue" stroke-width="0.5" x1="18" y1="16.2018717447916667" x2="20" y2="16.2018717447916667"/><line stroke="blue" stroke-width="0.25" x1="20.125" y1="14.7018717447916667" x2="20.125" y2="17.7018717447916667"/><line stroke="blue" stroke-width="0.5" x1="20" y1="16.2018717447916667" x2="22" y2="16.2018717447916667"/><line stroke="blue" stroke-width="0.25" x1="22.125" y1="14.7018717447916667" x2="22.125" y2="17.7018717447916667"/><line stroke="blue" stroke-width="0.5" x1="22" y1="16.2018717447916667" x2="24" y2="16.2018717447916667"/><line stroke="blue" stroke-width="0.25" x1="24.125" y1="14.7018717447916667" x2="24.125" y2="17.7018717447916667"/><line stroke="blue" stroke-width="0.5" x1="24" y1="16.2018717447916667" x2="26" y2="16.2018717447916667"/><line stroke="blue" stroke-width="0.25" x1="26.125" y1="14.7018717447916667" x2="26.125" y2="17.7018717447916667"/><line stroke="blue" stroke-width="0.5" x1="26" y1="16.2018717447916667" x2="28" y2="16.2018717447916667"/><line stroke="blue" stroke-width="0.25" x1="28.125" y1="14.7018717447916667" x2="28.125" y2="17.7018717447916667"/><line stroke="blue" stroke-width="0.5" x1="28" y1="16.2018717447916667" x2="30" y2="16.2018717447916667"/><line stroke="blue" stroke-width="0.5" x1="30.25" y1="13.2018717447916667" x2="30.25" y2="19.2018717447916667"/><text font-family="DejaVu Sans" font-size="4.233333333333333333333333333" fill="blue" x="29.93994140625" y="13.2018717447916667">2</text><line stroke="blue" stroke-width="0.5" x1="30" y1="16.2018717447916667" x2="32" y2="16.2018717447916667"/><line stroke="blue" stroke-width="0.25" x1="32.125" y1="14.7018717447916667" x2="32.125" y2="17.7018717447916667"/><line stroke="blue" stroke-width="0.5" x1="32" y1="16.2018717447916667" x2="34" y2="16.2018717447916667"/><line stroke="blue" stroke-width="0.25" x1="34.125" y1="14.7018717447916667" x2="34.125" y2="17.7018717447916667"/><line stroke="blue" stroke-width="0.5" x1="34" y1="16.2018717447916667" x2="36" y2="16.2018717447916667"/><line stroke="blue" stroke-width="0.25" x1="36.125" y1="14.7018717447916667" x2="36.125" y2="17.7018717447916667"/><line stroke="blue" stroke-width="0.5" x1="36" y1="16.2018717447916667" x2="38" y2="16.2018717447916667"/><line stroke="blue" stroke-width="0.25" x1="38.125" y1="14.7018717447916667" x2="38.125" y2="17.7018717447916667"/><line stroke="blue" stroke-width="0.5" x1="38" y1="16.2018717447916667" x2="40" y2="16.2018717447916667"/><line stroke="blue" stroke-width="0.25" x1="40.125" y1="14.7018717447916667" x2="40.125" y2="17.7018717447916667"/><line stroke="blue" stroke-width="0.5" x1="40" y1="16.2018717447916667" x2="42" y2="16.2018717447916667"/><line stroke="blue" stroke-width="0.25" x1="42.125" y1="14.7018717447916667" x2="42.125" y2="17.7018717447916667"/><line stroke="blue" stroke-width="0.5" x1="42" y1="16.2018717447916667" x2="44" y2="16.2018717447916667"/><line stroke="blue" stroke-width="0.25" x1="44.125" y1="14.7018717447916667" x2="44.125" y2="17.7018717447916667"/><line stroke="blue" stroke-width="0.5" x1="44" y1="16.2018717447916667" x2="46" y2="16.2018717447916667"/><line stroke="blue" stroke-width="0.25" x1="46.125" y1="14.7018717447916667" x2="46.125" y2="17.7018717447916667"/><line stroke="blue" stroke-width="0.5" x1="46" y1="16.2018717447916667" x2="48" y2="16.2018717447916667"/><line stroke="blue" stroke-width="0.25" x1="48.125" y1="14.7018717447916667" x2="48.125" y2="17.7018717447916667"/><line stroke="blue" stroke-width="0.5" x1="48" y1="16.2018717447916667" x2="50" y2="16.2018717447916667"/><line stroke="blue" stroke-width="0.5" x1="50.25" y1="13.2018717447916667" x2="50.25" y2="19.2018717447916667"/><text font-family="DejaVu Sans" font-size="4.233333333333333333333333333" fill="blue" x="49.9275390625" y="13.1419270833333335">3</text><line stroke="blue" stroke-width="0.5" x1="50" y1="16.2018717447916667" x2="52" y2="16.2018717447916667"/><line stroke="blue" stroke-width="0.25" x1="52.125" y1="14.7018717447916667" x2="52.125" y2="17.7018717447916667"/><line stroke="blue" stroke-width="0.5" x1="52" y1="16.2018717447916667" x2="54" y2="16.2018717447916667"/><line stroke="blue" stroke-width="0.25" x1="54.125" y1="14.7018717447916667" x2="54.125" y2="17.7018717447916667"/><line stroke="blue" stroke-width="0.5" x1="54" y1="16.2018717447916667" x2="56" y2="16.2018717447916667"/><line stroke="blue" stroke-width="0.25" x1="56.125" y1="14.7018717447916667" x2="56.125" y2="17.7018717447916667"/><line stroke="blue" stroke-width="0.5" x1="56" y1="16.2018717447916667" x2="58" y2="16.2018717447916667"/><line stroke="blue" stroke-width="0.25" x1="58.125" y1="14.7018717447916667" x2="58.125" y2="17.7018717447916667"/><line stroke="blue" stroke-width="0.5" x1="58" y1="16.2018717447916667" x2="60" y2="16.2018717447916667"/><line stroke="blue" stroke-width="0.25" x1="60.125" y1="14.7018717447916667" x2="60.125" y2="17.7018717447916667"/><line stroke="blue" stroke-width="0.5" x1="60" y1="16.2018717447916667" x2="62" y2="16.2018717447916667"/><line stroke="blue" stroke-width="0.25" x1="62.125" y1="14.7018717447916667" x2="62.125" y2="17.7018717447916667"/><line stroke="blue" stroke-width="0.5" x1="62" y1="16.2018717447916667" x2="64" y2="16.2018717447916667"/><line stroke="blue" stroke-width="0.25" x1="64.125" y1="14.7018717447916667" x2="64.125" y2="17.7018717447916667"/><line stroke="blue" stroke-width="0.5" x1="64" y1="16.2018717447916667" x2="66" y2="16.2018717447916667"/><line stroke="blue" stroke-width="0.25" x1="66.125" y1="14.7018717447916667" x2="66.125" y2="17.7018717447916667"/><line stroke="blue" stroke-width="0.5" x1="66" y1="16.2018717447916667" x2="68" y2="16.2018717447916667"/><line stroke="blue" stroke-width="0.25" x1="68.125" y1="14.7018717447916667" x2="68.125" y2="17.7018717447916667"/><line stroke="blue" stroke-width="0.5" x1="68" y1="16.2018717447916667" x2="70" y2="16.2018717447916667"/></g></svg>