<svg xmlns="http://www.w3.org/2000/svg" viewBox="0 0 210 297" width="210mm" height="297mm"><line stroke="green" stroke-width="0.1" x1="0" y1="0.0" x2="210" y2="0.0"/><line stroke="green" stroke-width="0.1" x1="0" y1="10.0" x2="210" y2="10.0"/><line stroke="green" stroke-width="0.1" x1="0" y1="20.0" x2="210" y2="20.0"/><line stroke="green" stroke-width="0.1" x1="0" y1="30.0" x2="210" y2="30.0"/><line stroke="green" stroke-width="0.1" x1="0" y1="40.0" x2="210" y2="40.0"/><line stroke="green" stroke-width="0.1" x1="0" y1="50.0" x2="210" y2="50.0"/><line stroke="green" stroke-width="0.1" x1="0" y1="60.0" x2="210" y2="60.0"/><line stroke="green" stroke-width="0.1" x1="0" y1="70.0" x2="210" y2="70.0"/><line stroke="green" stroke-width="0.1" x1="0" y1="80.0" x2="210" y2="80.0"/><line stroke="green" stroke-width="0.1" x1="0" y1="90.0" x2="210" y2="90.0"/><line stroke="green" stroke-width="0.1" x1="0" y1="100.0" x2="210" y2="100.0"/><line stroke="green" stroke-width="0.1" x1="0" y1="110.0" x2="210" y2="110.0"/><line stroke="green" stroke-width="0.1" x1="0" y1="120.0" x2="210" y2="120.0"/><line stroke="green" stroke-width="0.1" x1="0" y1="130.0" x2="210" y2="130.0"/><line stroke="green" stroke-width="0.1" x1="0" y1="140.0" x2="210" y2="140.0"/><line stroke="green" stroke-width="0.1" x1="0" y1="150.0" x2="210" y2="150.0"/><line stroke="green" stroke-width="0.1" x1="0" y1="160.0" x2="210" y2="160.0"/><line stroke="green" stroke-width="0.1" x1="0" y1="170.0" x2="210" y2="170.0"/><line stroke="green" stroke-width="0.1" x1="0" y1="180.0" x2="210" y2="180.0"/><line stroke="green" stroke-width="0.1" x1="0" y1="190.0" x2="210" y2="190.0"/><line stroke="green" stroke-width="0.1" x1="0" y1="200.0" x2="210" y2="200.0"/><line stroke="green" stroke-width="0.1" x1="0" y1="210.0" x2="210" y2="210.0"/><line stroke="green" stroke-width="0.1" x1="0" y1="220.0" x2="210" y2="220.0"/><line stroke="green" stroke-width="0.1" x1="0" y1="230.0" x2="210" y2="230.0"/><line stroke="green" stroke-width="0.1" x1="0" y1="240.0" x2="210" y2="240.0"/><line stroke="green" stroke-width="0.1" x1="0" y1="250.0" x2="210" y2="250.0"/><line stroke="green" stroke-width="0.1" x1="0" y1="260.0" x2="210" y2="260.0"/><line stroke="green" stroke-width="0.1" x1="0" y1="270.0" x2="210" y2="270.0"/><line stroke="green" stroke-width="0.1" x1="0" y1="280.0" x2="210" y2="280.0"/><line stroke="green" stroke-width="0.1" x1="0" y1="290.0" x2="210" y2="290.0"/><line stroke="green" stroke-width="0.1" x1="0.0" y1="0" x2="0.0" y2="297"/><line stroke="green" stroke-width="0.1" x1="10.0" y1="0" x2="10.0" y2="297"/><line stroke="green" stroke-width="0.1" x1="20.0" y1="0" x2="20.0" y2="297"/><line stroke="green" stroke-width="0.1" x1="30.0" y1="0" x2="30.0" y2="297"/><line stroke="green" stroke-width="0.1" x1="40.0" y1="0" x2="40.0" y2="297"/><line stroke="green" stroke-width="0.1" x1="50.0" y1="0" x2="50.0" y2="297"/><line stroke="green" stroke-width="0.1" x1="60.0" y1="0" x2="60.0" y2="297"/><line stroke="green" stroke-width="0.1" x1="70.0" y1="0" x2="70.0" y2="297"/><line stroke="green" stroke-width="0.1" x1="80.0" y1="0" x2="80.0" y2="297"/><line stroke="green" stroke-width="0.1" x1="90.0" y1="0" x2="90.0" y2="297"/><line stroke="green" stroke-width="0.1" x1="100.0" y1="0" x2="100.0" y2="297"/><line stroke="green" stroke-width="0.1" x1="110.0" y1="0" x2="110.0" y2="297"/><line stroke="green" stroke-width="0.1" x1="120.0" y1="0" x2="120.0" y2="297"/><line stroke="green" stroke-width="0.1" x1="130.0" y1="0" x2="130.0" y2="297"/><line stroke="green" stroke-width="0.1" x1="140.0" y1="0" x2="140.0" y2="297"/><line stroke="green" stroke-width="0.1" x1="150.0" y1="0" x2="150.0" y2="297"/><line stroke="green" stroke-width="0.1" x1="160.0" y1="0" x2="160.0" y2="297"/><line stroke="green" stroke-width="0.1" x1="170.0" y1="0" x2="170.0" y2="297"/><line stroke="green" stroke-width="0.1" x1="180.0" y1="0" x2="180.0" y2="297"/><line stroke="green" stroke-width="0.1" x1="190.0" y1="0" x2="190.0" y2="297"/><line stroke="green" stroke-width="0.1" x1="200.0" y1="0" x2="200.0" y2="297"/><line stroke="green" stroke-width="0.1" x1="210.0" y1="0" x2="210.0" y2="297"/><line stroke="blue" stroke-width="3" x1="11.5" y1="15.0" x2="11.5" y2="25.0"/><line stroke="blue" stroke-width="3" x1="10.0" y1="20.0" x2="20.0" y2="20.0"/><line stroke="blue" stroke-width="3" x1="21.5" y1="10.0" x2="21.5" y2="30.0"/><line stroke="blue" stroke-width="3" x1="20.0" y1="20.0" x2="40.0" y2="20.0"/><line stroke="blue" stroke-width="3" x1="41.5" y1="15.0" x2="41.5" y2="25.0"/><line stroke="blue" stroke-width="3" x1="40.0" y1="20.0" x2="74.0" y2="20.0"/><line stroke="blue" stroke-width="3" x1="75.5" y1="15.0" x2="75.5" y2="25.0"/><line stroke="blue" stroke-width="3" x1="128.5" y1="15.0" x2="128.5" y2="25.0"/><line stroke="blue" stroke-width="3" x1="74.0" y1="20.0" x2="130.0" y2="20.0"/></svg>