<svg xmlns="http://www.w3.org/2000/svg" viewBox="0 0 210 297" width="210mm" height="297mm"><g><line stroke="blue" stroke-width="3" x1="11.5" y1="30.0" x2="11.5" y2="40.0"/><text font-family="DejaVu Sans" font-size="4.233333333333333333333333333" fill="green" x="11.034912109375" y="33.0861165364583334">1</text><line stroke="blue" stroke-width="3" x1="10" y1="35.0" x2="20" y2="35.0"/><line stroke="blue" stroke-width="3" x1="21.5" y1="25.0" x2="21.5" y2="45.0"/><text font-family="DejaVu Sans" font-size="4.233333333333333333333333333" fill="green" x="21.1775390625" y="23.1419270833333335">3</text><text font-family="DejaVu Sans" font-size="4.233333333333333333333333333" fill="green" x="21.18994140625" y="28.1419270833333335">2</text><line stroke="blue" stroke-width="3" x1="20.0" y1="35.0" x2="40.0" y2="35.0"/><line stroke="blue" stroke-width="3" x1="41.5" y1="30.0" x2="41.5" y2="40.0"/><text font-family="DejaVu Sans" font-size="4.233333333333333333333333333" fill="green" x="41.152734375" y="23.0861165364583334">7</text><text font-family="DejaVu Sans" font-size="4.233333333333333333333333333" fill="green" x="41.17340494791666666" y="28.0861165364583334">5</text><text font-family="DejaVu Sans" font-size="4.233333333333333333333333333" fill="green" x="41.29329427083333334" y="33.0861165364583334">4</text><line stroke="blue" stroke-width="3" x1="40.0" y1="35.0" x2="74.0" y2="35.0"/><line stroke="blue" stroke-width="3" x1="75.5" y1="30.0" x2="75.5" y2="40.0"/><text font-family="DejaVu Sans" font-size="4.233333333333333333333333333" fill="green" x="75.034912109375" y="18.0861165364583334">11</text><text font-family="DejaVu Sans" font-size="4.233333333333333333333333333" fill="green" x="75.034912109375" y="23.1419270833333335">10</text><text font-family="DejaVu Sans" font-size="4.233333333333333333333333333" fill="green" x="75.233349609375" y="28.1419270833333335">9</text><text font-family="DejaVu Sans" font-size="4.233333333333333333333333333" fill="green" x="75.2126790364583333" y="33.1419270833333335">8</text><line stroke="blue" stroke-width="3" x1="128.5" y1="30.0" x2="128.5" y2="40.0"/><text font-family="DejaVu Sans" font-size="4.233333333333333333333333333" fill="green" x="128.034912109375" y="13.1419270833333335">16</text><text font-family="DejaVu Sans" font-size="4.233333333333333333333333333" fill="green" x="128.034912109375" y="18.0861165364583334">15</text><text font-family="DejaVu Sans" font-size="4.233333333333333333333333333" fill="green" x="128.034912109375" y="23.0861165364583334">14</text><text font-family="DejaVu Sans" font-size="4.233333333333333333333333333" fill="green" x="128.034912109375" y="28.1419270833333335">13</text><text font-family="DejaVu Sans" font-size="4.233333333333333333333333333" fill="green" x="128.034912109375" y="33.1419270833333335">12</text><line stroke="blue" stroke-width="3" x1="74.0" y1="35.0" x2="130.0" y2="35.0"/></g><g><line stroke="green" stroke-width="0.1" x1="0" y1="0" x2="210" y2="0"/><line stroke="green" stroke-width="0.1" x1="0" y1="10" x2="210" y2="10"/><line stroke="green" stroke-width="0.1" x1="0" y1="20" x2="210" y2="20"/><line stroke="green" stroke-width="0.1" x1="0" y1="30" x2="210" y2="30"/><line stroke="green" stroke-width="0.1" x1="0" y1="40" x2="210" y2="40"/><line stroke="green" stroke-width="0.1" x1="0" y1="50" x2="210" y2="50"/><line stroke="green" stroke-width="0.1" x1="0" y1="60" x2="210" y2="60"/><line stroke="green" stroke-width="0.1" x1="0" y1="70" x2="210" y2="70"/><line stroke="green" stroke-width="0.1" x1="0" y1="80" x2="210" y2="80"/><line stroke="green" stroke-width="0.1" x1="0" y1="90" x2="210" y2="90"/><line stroke="green" stroke-width="0.1" x1="0" y1="100" x2="210" y2="100"/><line stroke="green" stroke-width="0.1" x1="0" y1="110" x2="210" y2="110"/><line stroke="green" stroke-width="0.1" x1="0" y1="120" x2="210" y2="120"/><line stroke="green" stroke-width="0.1" x1="0" y1="130" x2="210" y2="130"/><line stroke="green" stroke-width="0.1" x1="0" y1="140" x2="210" y2="140"/><line stroke="green" stroke-width="0.1" x1="0" y1="150" x2="210" y2="150"/><line stroke="green" stroke-width="0.1" x1="0" y1="160" x2="210" y2="160"/><line stroke="green" stroke-width="0.1" x1="0" y1="170" x2="210" y2="170"/><line stroke="green" stroke-width="0.1" x1="0" y1="180" x2="210" y2="180"/><line stroke="green" stroke-width="0.1" x1="0" y1="190" x2="210" y2="190"/><line stroke="green" stroke-width="0.1" x1="0" y1="200" x2="210" y2="200"/><line stroke="green" stroke-width="0.1" x1="0" y1="210" x2="210" y2="210"/><line stroke="green" stroke-width="0.1" x1="0" y1="220" x2="210" y2="220"/><line stroke="green" stroke-width="0.1" x1="0" y1="230" x2="210" y2="230"/><line stroke="green" stroke-width="0.1" x1="0" y1="240" x2="210" y2="240"/><line stroke="green" stroke-width="0.1" x1="0" y1="250" x2="210" y2="250"/><line stroke="green" stroke-width="0.1" x1="0" y1="260" x2="210" y2="260"/><line stroke="green" stroke-width="0.1" x1="0" y1="270" x2="210" y2="270"/><line stroke="green" stroke-width="0.1" x1="0" y1="280" x2="210" y2="280"/><line stroke="green" stroke-width="0.1" x1="0" y1="290" x2="210" y2="290"/><line stroke="green" stroke-width="0.1" x1="0" y1="0" x2="0" y2="297"/><line stroke="green" stroke-width="0.1" x1="10" y1="0" x2="10" y2="297"/><line stroke="green" stroke-width="0.1" x1="20" y1="0" x2="20" y2="297"/><line stroke="green" stroke-width="0.1" x1="30" y1="0" x2="30" y2="297"/><line stroke="green" stroke-width="0.1" x1="40" y1="0" x2="40" y2="297"/><line stroke="green" stroke-width="0.1" x1="50" y1="0" x2="50" y2="297"/><line stroke="green" stroke-width="0.1" x1="60" y1="0" x2="60" y2="297"/><line stroke="green" stroke-width="0.1" x1="70" y1="0" x2="70" y2="297"/><line stroke="green" stroke-width="0.1" x1="80" y1="0" x2="80" y2="297"/><line stroke="green" stroke-width="0.1" x1="90" y1="0" x2="90" y2="297"/><line stroke="green" stroke-width="0.1" x1="100" y1="0" x2="100" y2="297"/><line stroke="green" stroke-width="0.1" x1="110" y1="0" x2="110" y2="297"/><line stroke="green" stroke-width="0.1" x1="120" y1="0" x2="120" y2="297"/><line stroke="green" stroke-width="0.1" x1="130" y1="0" x2="130" y2="297"/><line stroke="green" stroke-width="0.1" x1="140" y1="0" x2="140" y2="297"/><line stroke="green" stroke-width="0.1" x1="150" y1="0" x2="150" y2="297"/><line stroke="green" stroke-width="0.1" x1="160" y1="0" x2="160" y2="297"/><line stroke="green" stroke-width="0.1" x1="170" y1="0" x2="170" y2="297"/><line stroke="green" stroke-width="0.1" x1="180" y1="0" x2="180" y2="297"/><line stroke="green" stroke-width="0.1" x1="190" y1="0" x2="190" y2="297"/><line stroke="green" stroke-width="0.1" x1="200" y1="0" x2="200" y2="297"/><line stroke="green" stroke-width="0.1" x1="210" y1="0" x2="210" y2="297"/></g></svg>