<svg xmlns="http://www.w3.org/2000/svg" viewBox="0 0 210 297" width="210mm" height="297mm"><g><line stroke="green" stroke-width="0.1" x1="0" y1="0" x2="210" y2="0"/><line stroke="green" stroke-width="0.1" x1="0" y1="10" x2="210" y2="10"/><line stroke="green" stroke-width="0.1" x1="0" y1="20" x2="210" y2="20"/><line stroke="green" stroke-width="0.1" x1="0" y1="30" x2="210" y2="30"/><line stroke="green" stroke-width="0.1" x1="0" y1="40" x2="210" y2="40"/><line stroke="green" stroke-width="0.1" x1="0" y1="50" x2="210" y2="50"/><line stroke="green" stroke-width="0.1" x1="0" y1="60" x2="210" y2="60"/><line stroke="green" stroke-width="0.1" x1="0" y1="70" x2="210" y2="70"/><line stroke="green" stroke-width="0.1" x1="0" y1="80" x2="210" y2="80"/><line stroke="green" stroke-width="0.1" x1="0" y1="90" x2="210" y2="90"/><line stroke="green" stroke-width="0.1" x1="0" y1="100" x2="210" y2="100"/><line stroke="green" stroke-width="0.1" x1="0" y1="110" x2="210" y2="110"/><line stroke="green" stroke-width="0.1" x1="0" y1="120" x2="210" y2="120"/><line stroke="green" stroke-width="0.1" x1="0" y1="130" x2="210" y2="130"/><line stroke="green" stroke-width="0.1" x1="0" y1="140" x2="210" y2="140"/><line stroke="green" stroke-width="0.1" x1="0" y1="150" x2="210" y2="150"/><line stroke="green" stroke-width="0.1" x1="0" y1="160" x2="210" y2="160"/><line stroke="green" stroke-width="0.1" x1="0" y1="170" x2="210" y2="170"/><line stroke="green" stroke-width="0.1" x1="0" y1="180" x2="210" y2="180"/><line stroke="green" stroke-width="0.1" x1="0" y1="190" x2="210" y2="190"/><line stroke="green" stroke-width="0.1" x1="0" y1="200" x2="210" y2="200"/><line stroke="green" stroke-width="0.1" x1="0" y1="210" x2="210" y2="210"/><line stroke="green" stroke-width="0.1" x1="0" y1="220" x2="210" y2="220"/><line stroke="green" stroke-width="0.1" x1="0" y1="230" x2="210" y2="230"/><line stroke="green" stroke-width="0.1" x1="0" y1="240" x2="210" y2="240"/><line stroke="green" stroke-width="0.1" x1="0" y1="250" x2="210" y2="250"/><line stroke="green" stroke-width="0.1" x1="0" y1="260" x2="210" y2="260"/><line stroke="green" stroke-width="0.1" x1="0" y1="270" x2="210" y2="270"/><line stroke="green" stroke-width="0.1" x1="0" y1="280" x2="210" y2="280"/><line stroke="green" stroke-width="0.1" x1="0" y1="290" x2="210" y2="290"/><line stroke="green" stroke-width="0.1" x1="0" y1="0" x2="0" y2="297"/><line stroke="green" stroke-width="0.1" x1="10" y1="0" x2="10" y2="297"/><line stroke="green" stroke-width="0.1" x1="20" y1="0" x2="20" y2="297"/><line stroke="green" stroke-width="0.1" x1="30" y1="0" x2="30" y2="297"/><line stroke="green" stroke-width="0.1" x1="40" y1="0" x2="40" y2="297"/><line stroke="green" stroke-width="0.1" x1="50" y1="0" x2="50" y2="297"/><line stroke="green" stroke-width="0.1" x1="60" y1="0" x2="60" y2="297"/><line stroke="green" stroke-width="0.1" x1="70" y1="0" x2="70" y2="297"/><line stroke="green" stroke-width="0.1" x1="80" y1="0" x2="80" y2="297"/><line stroke="green" stroke-width="0.1" x1="90" y1="0" x2="90" y2="297"/><line stroke="green" stroke-width="0.1" x1="100" y1="0" x2="100" y2="297"/><line stroke="green" stroke-width="0.1" x1="110" y1="0" x2="110" y2="297"/><line stroke="green" stroke-width="0.1" x1="120" y1="0" x2="120" y2="297"/><line stroke="green" stroke-width="0.1" x1="130" y1="0" x2="130" y2="297"/><line stroke="green" stroke-width="0.1" x1="140" y1="0" x2="140" y2="297"/><line stroke="green" stroke-width="0.1" x1="150" y1="0" x2="150" y2="297"/><line stroke="green" stroke-width="0.1" x1="160" y1="0" x2="160" y2="297"/><line stroke="green" stroke-width="0.1" x1="170" y1="0" x2="170" y2="297"/><line stroke="green" stroke-width="0.1" x1="180" y1="0" x2="180" y2="297"/><line stroke="green" stroke-width="0.1" x1="190" y1="0" x2="190" y2="297"/><line stroke="green" stroke-width="0.1" x1="200" y1="0" x2="200" y2="297"/><line stroke="green" stroke-width="0.1" x1="210" y1="0" x2="210" y2="297"/></g><g><line stroke="blue" stroke-width="3" x1="11.5" y1="15.0" x2="11.5" y2="25.0"/><line stroke="blue" stroke-width="3" x1="10" y1="20.0" x2="20" y2="20.0"/><line stroke="blue" stroke-width="3" x1="21.5" y1="10.0" x2="21.5" y2="30.0"/><line stroke="blue" stroke-width="3" x1="20.0" y1="20.0" x2="40.0" y2="20.0"/><line stroke="blue" stroke-width="3" x1="41.5" y1="15.0" x2="41.5" y2="25.0"/><line stroke="blue" stroke-width="3" x1="40.0" y1="20.0" x2="74.0" y2="20.0"/><line stroke="blue" stroke-width="3" x1="75.5" y1="15.0" x2="75.5" y2="25.0"/><line stroke="blue" stroke-width="3" x1="128.5" y1="15.0" x2="128.5" y2="25.0"/><line stroke="blue" stroke-width="3" x1="74.0" y1="20.0" x2="130.0" y2="20.0"/></g></svg>