<svg xmlns="http://www.w3.org/2000/svg" viewBox="0 0 297 210" width="297mm" height="210mm"><line stroke="green" stroke-width="0.05" x1="0" y1="0.0" x2="210" y2="0.0"/><line stroke="green" stroke-width="0.05" x1="0" y1="10.0" x2="210" y2="10.0"/><line stroke="green" stroke-width="0.05" x1="0" y1="20.0" x2="210" y2="20.0"/><line stroke="green" stroke-width="0.05" x1="0" y1="30.0" x2="210" y2="30.0"/><line stroke="green" stroke-width="0.05" x1="0" y1="40.0" x2="210" y2="40.0"/><line stroke="green" stroke-width="0.05" x1="0" y1="50.0" x2="210" y2="50.0"/><line stroke="green" stroke-width="0.05" x1="0" y1="60.0" x2="210" y2="60.0"/><line stroke="green" stroke-width="0.05" x1="0" y1="70.0" x2="210" y2="70.0"/><line stroke="green" stroke-width="0.05" x1="0" y1="80.0" x2="210" y2="80.0"/><line stroke="green" stroke-width="0.05" x1="0" y1="90.0" x2="210" y2="90.0"/><line stroke="green" stroke-width="0.05" x1="0" y1="100.0" x2="210" y2="100.0"/><line stroke="green" stroke-width="0.05" x1="0" y1="110.0" x2="210" y2="110.0"/><line stroke="green" stroke-width="0.05" x1="0" y1="120.0" x2="210" y2="120.0"/><line stroke="green" stroke-width="0.05" x1="0" y1="130.0" x2="210" y2="130.0"/><line stroke="green" stroke-width="0.05" x1="0" y1="140.0" x2="210" y2="140.0"/><line stroke="green" stroke-width="0.05" x1="0" y1="150.0" x2="210" y2="150.0"/><line stroke="green" stroke-width="0.05" x1="0" y1="160.0" x2="210" y2="160.0"/><line stroke="green" stroke-width="0.05" x1="0" y1="170.0" x2="210" y2="170.0"/><line stroke="green" stroke-width="0.05" x1="0" y1="180.0" x2="210" y2="180.0"/><line stroke="green" stroke-width="0.05" x1="0" y1="190.0" x2="210" y2="190.0"/><line stroke="green" stroke-width="0.05" x1="0" y1="200.0" x2="210" y2="200.0"/><line stroke="green" stroke-width="0.05" x1="0" y1="210.0" x2="210" y2="210.0"/><line stroke="green" stroke-width="0.05" x1="0" y1="220.0" x2="210" y2="220.0"/><line stroke="green" stroke-width="0.05" x1="0" y1="230.0" x2="210" y2="230.0"/><line stroke="green" stroke-width="0.05" x1="0" y1="240.0" x2="210" y2="240.0"/><line stroke="green" stroke-width="0.05" x1="0" y1="250.0" x2="210" y2="250.0"/><line stroke="green" stroke-width="0.05" x1="0" y1="260.0" x2="210" y2="260.0"/><line stroke="green" stroke-width="0.05" x1="0" y1="270.0" x2="210" y2="270.0"/><line stroke="green" stroke-width="0.05" x1="0" y1="280.0" x2="210" y2="280.0"/><line stroke="green" stroke-width="0.05" x1="0" y1="290.0" x2="210" y2="290.0"/><line stroke="green" stroke-width="0.05" x1="0.0" y1="0" x2="0.0" y2="297"/><line stroke="green" stroke-width="0.05" x1="10.0" y1="0" x2="10.0" y2="297"/><line stroke="green" stroke-width="0.05" x1="20.0" y1="0" x2="20.0" y2="297"/><line stroke="green" stroke-width="0.05" x1="30.0" y1="0" x2="30.0" y2="297"/><line stroke="green" stroke-width="0.05" x1="40.0" y1="0" x2="40.0" y2="297"/><line stroke="green" stroke-width="0.05" x1="50.0" y1="0" x2="50.0" y2="297"/><line stroke="green" stroke-width="0.05" x1="60.0" y1="0" x2="60.0" y2="297"/><line stroke="green" stroke-width="0.05" x1="70.0" y1="0" x2="70.0" y2="297"/><line stroke="green" stroke-width="0.05" x1="80.0" y1="0" x2="80.0" y2="297"/><line stroke="green" stroke-width="0.05" x1="90.0" y1="0" x2="90.0" y2="297"/><line stroke="green" stroke-width="0.05" x1="100.0" y1="0" x2="100.0" y2="297"/><line stroke="green" stroke-width="0.05" x1="110.0" y1="0" x2="110.0" y2="297"/><line stroke="green" stroke-width="0.05" x1="120.0" y1="0" x2="120.0" y2="297"/><line stroke="green" stroke-width="0.05" x1="130.0" y1="0" x2="130.0" y2="297"/><line stroke="green" stroke-width="0.05" x1="140.0" y1="0" x2="140.0" y2="297"/><line stroke="green" stroke-width="0.05" x1="150.0" y1="0" x2="150.0" y2="297"/><line stroke="green" stroke-width="0.05" x1="160.0" y1="0" x2="160.0" y2="297"/><line stroke="green" stroke-width="0.05" x1="170.0" y1="0" x2="170.0" y2="297"/><line stroke="green" stroke-width="0.05" x1="180.0" y1="0" x2="180.0" y2="297"/><line stroke="green" stroke-width="0.05" x1="190.0" y1="0" x2="190.0" y2="297"/><line stroke="green" stroke-width="0.05" x1="200.0" y1="0" x2="200.0" y2="297"/><line stroke="green" stroke-width="0.05" x1="210.0" y1="0" x2="210.0" y2="297"/><line stroke="blue" stroke-width="0.5" x1="10.0" y1="13.0" x2="10.0" y2="19.0"/><text font-family="DejaVu Sans" font-size="3.5277777777777777" fill="green" x="9.6124267578125" y="12.571763780381945">1</text><line stroke="blue" stroke-width="1" x1="10.0" y1="16.0" x2="14.0" y2="16.0"/><line stroke="blue" stroke-width="0.5" x1="14.0" y1="14.5" x2="14.0" y2="17.5"/><line stroke="blue" stroke-width="1" x1="14.0" y1="16.0" x2="18.0" y2="16.0"/><line stroke="blue" stroke-width="0.5" x1="18.0" y1="14.5" x2="18.0" y2="17.5"/><line stroke="blue" stroke-width="1" x1="18.0" y1="16.0" x2="22.0" y2="16.0"/><line stroke="blue" stroke-width="0.5" x1="22.0" y1="14.5" x2="22.0" y2="17.5"/><line stroke="blue" stroke-width="1" x1="22.0" y1="16.0" x2="26.0" y2="16.0"/><line stroke="blue" stroke-width="0.5" x1="26.0" y1="14.5" x2="26.0" y2="17.5"/><line stroke="blue" stroke-width="1" x1="26.0" y1="16.0" x2="30.0" y2="16.0"/><line stroke="blue" stroke-width="0.5" x1="30.0" y1="13.0" x2="30.0" y2="19.0"/><text font-family="DejaVu Sans" font-size="3.5277777777777777" fill="green" x="29.741617838541668" y="12.618272569444445">2</text><line stroke="blue" stroke-width="1" x1="30.0" y1="16.0" x2="34.0" y2="16.0"/><line stroke="blue" stroke-width="0.5" x1="34.0" y1="14.5" x2="34.0" y2="17.5"/><line stroke="blue" stroke-width="1" x1="34.0" y1="16.0" x2="38.0" y2="16.0"/><line stroke="blue" stroke-width="0.5" x1="38.0" y1="14.5" x2="38.0" y2="17.5"/><line stroke="blue" stroke-width="1" x1="38.0" y1="16.0" x2="42.0" y2="16.0"/><line stroke="blue" stroke-width="0.5" x1="42.0" y1="14.5" x2="42.0" y2="17.5"/><line stroke="blue" stroke-width="1" x1="42.0" y1="16.0" x2="46.0" y2="16.0"/><line stroke="blue" stroke-width="0.5" x1="46.0" y1="14.5" x2="46.0" y2="17.5"/><line stroke="blue" stroke-width="1" x1="46.0" y1="16.0" x2="50.0" y2="16.0"/><line stroke="blue" stroke-width="0.5" x1="50.0" y1="13.0" x2="50.0" y2="19.0"/><text font-family="DejaVu Sans" font-size="3.5277777777777777" fill="green" x="49.731282552083336" y="12.618272569444445">3</text><line stroke="blue" stroke-width="1" x1="50.0" y1="16.0" x2="54.0" y2="16.0"/><line stroke="blue" stroke-width="0.5" x1="54.0" y1="14.5" x2="54.0" y2="17.5"/><line stroke="blue" stroke-width="1" x1="54.0" y1="16.0" x2="58.0" y2="16.0"/><line stroke="blue" stroke-width="0.5" x1="58.0" y1="14.5" x2="58.0" y2="17.5"/><line stroke="blue" stroke-width="1" x1="58.0" y1="16.0" x2="62.0" y2="16.0"/><line stroke="blue" stroke-width="0.5" x1="62.0" y1="14.5" x2="62.0" y2="17.5"/><line stroke="blue" stroke-width="1" x1="62.0" y1="16.0" x2="66.0" y2="16.0"/><line stroke="blue" stroke-width="0.5" x1="66.0" y1="14.5" x2="66.0" y2="17.5"/><line stroke="blue" stroke-width="1" x1="70.0" y1="14.5" x2="70.0" y2="17.5"/><line stroke="blue" stroke-width="1" x1="66.0" y1="16.0" x2="70.0" y2="16.0"/></svg>