<svg xmlns="http://www.w3.org/2000/svg" viewBox="0 0 297 210" width="297mm" height="210mm"><g><line stroke="blue" stroke-width="0.5" x1="13.0" y1="10.25" x2="19.0" y2="10.25"/><text font-family="DejaVu Sans" font-size="3.527777777777777777777777778" fill="green" x="9.6124267578125" y="12.821763780381944">1</text><line stroke="blue" stroke-width="1" x1="16.0" y1="10" x2="16.0" y2="14"/><line stroke="blue" stroke-width="0.5" x1="14.5" y1="14.25" x2="17.5" y2="14.25"/><line stroke="blue" stroke-width="1" x1="16.0" y1="14.0" x2="16.0" y2="18.0"/><line stroke="blue" stroke-width="0.5" x1="14.5" y1="18.25" x2="17.5" y2="18.25"/><line stroke="blue" stroke-width="1" x1="16.0" y1="18.0" x2="16.0" y2="22.0"/><line stroke="blue" stroke-width="0.5" x1="14.5" y1="22.25" x2="17.5" y2="22.25"/><line stroke="blue" stroke-width="1" x1="16.0" y1="22.0" x2="16.0" y2="26.0"/><line stroke="blue" stroke-width="0.5" x1="14.5" y1="26.25" x2="17.5" y2="26.25"/><line stroke="blue" stroke-width="1" x1="16.0" y1="26.0" x2="16.0" y2="30.0"/><line stroke="blue" stroke-width="0.5" x1="13.0" y1="30.25" x2="19.0" y2="30.25"/><text font-family="DejaVu Sans" font-size="3.527777777777777777777777778" fill="green" x="9.7416178385416667" y="32.868272569444444">2</text><line stroke="blue" stroke-width="1" x1="16.0" y1="30.0" x2="16.0" y2="34.0"/><line stroke="blue" stroke-width="0.5" x1="14.5" y1="34.25" x2="17.5" y2="34.25"/><line stroke="blue" stroke-width="1" x1="16.0" y1="34.0" x2="16.0" y2="38.0"/><line stroke="blue" stroke-width="0.5" x1="14.5" y1="38.25" x2="17.5" y2="38.25"/><line stroke="blue" stroke-width="1" x1="16.0" y1="38.0" x2="16.0" y2="42.0"/><line stroke="blue" stroke-width="0.5" x1="14.5" y1="42.25" x2="17.5" y2="42.25"/><line stroke="blue" stroke-width="1" x1="16.0" y1="42.0" x2="16.0" y2="46.0"/><line stroke="blue" stroke-width="0.5" x1="14.5" y1="46.25" x2="17.5" y2="46.25"/><line stroke="blue" stroke-width="1" x1="16.0" y1="46.0" x2="16.0" y2="50.0"/><line stroke="blue" stroke-width="0.5" x1="13.0" y1="50.25" x2="19.0" y2="50.25"/><text font-family="DejaVu Sans" font-size="3.527777777777777777777777778" fill="green" x="9.7312825520833333" y="52.868272569444444">3</text><line stroke="blue" stroke-width="1" x1="16.0" y1="50.0" x2="16.0" y2="54.0"/><line stroke="blue" stroke-width="0.5" x1="14.5" y1="54.25" x2="17.5" y2="54.25"/><line stroke="blue" stroke-width="1" x1="16.0" y1="54.0" x2="16.0" y2="58.0"/><line stroke="blue" stroke-width="0.5" x1="14.5" y1="58.25" x2="17.5" y2="58.25"/><line stroke="blue" stroke-width="1" x1="16.0" y1="58.0" x2="16.0" y2="62.0"/><line stroke="blue" stroke-width="0.5" x1="14.5" y1="62.25" x2="17.5" y2="62.25"/><line stroke="blue" stroke-width="1" x1="16.0" y1="62.0" x2="16.0" y2="66.0"/><line stroke="blue" stroke-width="0.5" x1="14.5" y1="66.25" x2="17.5" y2="66.25"/><line stroke="blue" stroke-width="0.5" x1="13.0" y1="69.75" x2="19.0" y2="69.75"/><line stroke="blue" stroke-width="1" x1="16.0" y1="66.0" x2="16.0" y2="70.0"/></g><g><line stroke="green" stroke-width="0.05" x1="0" y1="0" x2="297" y2="0"/><line stroke="green" stroke-width="0.05" x1="0" y1="10" x2="297" y2="10"/><line stroke="green" stroke-width="0.05" x1="0" y1="20" x2="297" y2="20"/><line stroke="green" stroke-width="0.05" x1="0" y1="30" x2="297" y2="30"/><line stroke="green" stroke-width="0.05" x1="0" y1="40" x2="297" y2="40"/><line stroke="green" stroke-width="0.05" x1="0" y1="50" x2="297" y2="50"/><line stroke="green" stroke-width="0.05" x1="0" y1="60" x2="297" y2="60"/><line stroke="green" stroke-width="0.05" x1="0" y1="70" x2="297" y2="70"/><line stroke="green" stroke-width="0.05" x1="0" y1="80" x2="297" y2="80"/><line stroke="green" stroke-width="0.05" x1="0" y1="90" x2="297" y2="90"/><line stroke="green" stroke-width="0.05" x1="0" y1="100" x2="297" y2="100"/><line stroke="green" stroke-width="0.05" x1="0" y1="110" x2="297" y2="110"/><line stroke="green" stroke-width="0.05" x1="0" y1="120" x2="297" y2="120"/><line stroke="green" stroke-width="0.05" x1="0" y1="130" x2="297" y2="130"/><line stroke="green" stroke-width="0.05" x1="0" y1="140" x2="297" y2="140"/><line stroke="green" stroke-width="0.05" x1="0" y1="150" x2="297" y2="150"/><line stroke="green" stroke-width="0.05" x1="0" y1="160" x2="297" y2="160"/><line stroke="green" stroke-width="0.05" x1="0" y1="170" x2="297" y2="170"/><line stroke="green" stroke-width="0.05" x1="0" y1="180" x2="297" y2="180"/><line stroke="green" stroke-width="0.05" x1="0" y1="190" x2="297" y2="190"/><line stroke="green" stroke-width="0.05" x1="0" y1="200" x2="297" y2="200"/><line stroke="green" stroke-width="0.05" x1="0" y1="210" x2="297" y2="210"/><line stroke="green" stroke-width="0.05" x1="0" y1="0" x2="0" y2="210"/><line stroke="green" stroke-width="0.05" x1="10" y1="0" x2="10" y2="210"/><line stroke="green" stroke-width="0.05" x1="20" y1="0" x2="20" y2="210"/><line stroke="green" stroke-width="0.05" x1="30" y1="0" x2="30" y2="210"/><line stroke="green" stroke-width="0.05" x1="40" y1="0" x2="40" y2="210"/><line stroke="green" stroke-width="0.05" x1="50" y1="0" x2="50" y2="210"/><line stroke="green" stroke-width="0.05" x1="60" y1="0" x2="60" y2="210"/><line stroke="green" stroke-width="0.05" x1="70" y1="0" x2="70" y2="210"/><line stroke="green" stroke-width="0.05" x1="80" y1="0" x2="80" y2="210"/><line stroke="green" stroke-width="0.05" x1="90" y1="0" x2="90" y2="210"/><line stroke="green" stroke-width="0.05" x1="100" y1="0" x2="100" y2="210"/><line stroke="green" stroke-width="0.05" x1="110" y1="0" x2="110" y2="210"/><line stroke="green" stroke-width="0.05" x1="120" y1="0" x2="120" y2="210"/><line stroke="green" stroke-width="0.05" x1="130" y1="0" x2="130" y2="210"/><line stroke="green" stroke-width="0.05" x1="140" y1="0" x2="140" y2="210"/><line stroke="green" stroke-width="0.05" x1="150" y1="0" x2="150" y2="210"/><line stroke="green" stroke-width="0.05" x1="160" y1="0" x2="160" y2="210"/><line stroke="green" stroke-width="0.05" x1="170" y1="0" x2="170" y2="210"/><line stroke="green" stroke-width="0.05" x1="180" y1="0" x2="180" y2="210"/><line stroke="green" stroke-width="0.05" x1="190" y1="0" x2="190" y2="210"/><line stroke="green" stroke-width="0.05" x1="200" y1="0" x2="200" y2="210"/><line stroke="green" stroke-width="0.05" x1="210" y1="0" x2="210" y2="210"/><line stroke="green" stroke-width="0.05" x1="220" y1="0" x2="220" y2="210"/><line stroke="green" stroke-width="0.05" x1="230" y1="0" x2="230" y2="210"/><line stroke="green" stroke-width="0.05" x1="240" y1="0" x2="240" y2="210"/><line stroke="green" stroke-width="0.05" x1="250" y1="0" x2="250" y2="210"/><line stroke="green" stroke-width="0.05" x1="260" y1="0" x2="260" y2="210"/><line stroke="green" stroke-width="0.05" x1="270" y1="0" x2="270" y2="210"/><line stroke="green" stroke-width="0.05" x1="280" y1="0" x2="280" y2="210"/><line stroke="green" stroke-width="0.05" x1="290" y1="0" x2="290" y2="210"/></g></svg>